<mxfile host="Electron" agent="Mozilla/5.0 (Windows NT 10.0; Win64; x64) AppleWebKit/537.36 (KHTML, like Gecko) draw.io/27.0.9 Chrome/134.0.6998.205 Electron/35.4.0 Safari/537.36" version="27.0.9">
  <diagram name="PÃ¡gina-1" id="IKVGy_DopQR0RWY-qbrC">
    <mxGraphModel dx="1094" dy="1928" grid="1" gridSize="10" guides="1" tooltips="1" connect="1" arrows="1" fold="1" page="1" pageScale="1" pageWidth="827" pageHeight="1169" math="0" shadow="0">
      <root>
        <mxCell id="0" />
        <mxCell id="1" parent="0" />
        <mxCell id="420Tv9R_N6Mz5HBJ3JaE-24" value="" style="shape=image;verticalLabelPosition=bottom;labelBackgroundColor=default;verticalAlign=top;aspect=fixed;imageAspect=0;image=data:image/png,iVBORw0KGgoAAAANSUhEUgAAAh8AAADFCAYAAAD0Z5CxAAAAAXNSR0IArs4c6QAAAARnQU1BAACxjwv8YQUAAAAJcEhZcwAADsMAAA7DAcdvqGQAAJ7ASURBVHhe7J1nQBTX14d/uyxFsGBDwYqKIM2CvUXFFjWWmBij0cSavyYx8U1ijDFqmsYSYwM7xi4iFhA0iC2CSrGjYkBQEOlFkLa7s+f9sJTd2TvLIooa5/mk7Mzce885985ld9hHQkQEEREREREREZFqQsr/gYiIiIiIiIjIi0TcfIiIiIiIiIhUK+LmQ0RERERERKRaETcfIiIiIiIiItWKuPkQERERERERqVYkpX/tUvz4Fq7EPYGKfwSkqNe2GxytjABVNm4cP4E0h9EY1Nacf2ClUWVdg9/f2XB9dwBamfJfVWPIMboUIO6f4/gn3gTOQ0agc2OZ+seqJ7h37gRCYvJRy6Efhr3VGjX5p2qRh/jIm0gq0v2DIKlla/R0NEXIlk141HcexjuWtPEs5MfjzN6jyOr7Bd5zqNx18uPPYO/RLPT94j1UfKoKWSFbsOlRX8wb7wi9h6tyEHXiEPwvPkCtATPxuXtz/hFVg0tC+IkbMOo8BG6NjXgvVqKfIiIiIiKvHWXvfJjatIX19V/wdt++GLjoHFQyKbjsuziy8EN8H/AUAKBK2o254yZh3KIAzWs8IxxitszGuI/G46eTRfwXSzDkGB6qbJyZ1wed3D/E1E/eRc/O47HzAQeoknBwale4r85Ez9FOiPq2G/p+/w/UIxOgOAwbFm9BSHQc7p9fjYlDv4XPv/GIuXoUv/60DwAgkUghlfBPrAwqJEf5wWPpBpx9zPFf1I8qGVF+Hli64SwMPlUigbTCDnOI3TQbHgVj8fkoCxxfvIF/QJWRR3pgnsc9GFuWbjxUyM7MLt/8GtRPEREREZHXEtKg8Mgkqi+VkNno3ZRPHKWlpJEifhOt3p9TcsRTijl3nC4mFGue9uzk3qXTx8MoScF/QQNDjtGAS/KjLfvuUF7RAzo0pQ3JJMbUc3ksyR+to/4mUmr0kS/lUBGd+cyWTOy/plB9Qym+RhfD84mISBH+PTlbjqV9+URESnpw6RL/6GdHGU3LetnR7NNF/FcqRBm9jHrZzaZnOFUY7iGtGeBEcy/oC05V4CghYD8Fp3LlP0k9SnO+O0TqaIuIiIiI/JcxWrJkyZLSjYgy+ghWH7wJhf0YfPeeDAd234Xr4HfR1c4CMpkSiWe3w+tYJO4VN4N7+0YA8nBz35/YduI0As/nonVXO0hu78XKFTvgf98cLTJ24esFAaBe7rBXXcWuFZvhe/gv7Ltmhg5uxri0bTsCr92HskUfuFhJocq5UsExQFrIRiz50w9hIadwhWuLLq3raD24IqllDzeXhjCRWaKV5Bo2H4yF/YTvMLHDE5zZ5o1LkRG439AJsoveSOw5HwuGtUTOyZ8xc0EAqIs7HC01rmbUGM2aGAMAVI9PY/PuTPT5ehxcjKWwbNoUKErERe89CDfqBEcrKVAQh+A927HnWCiSLNrCqYkFFCkROPRXKJTN8nFq/WacTGuETo4NYQyAS72MA38dRFB4HGKvhMNo0GwMty3EnWM7sDcwGOeu58PGpQ3q6nzuwCH18gH8dTAI4XGxuBJuhEGzh8NWVoC44D3YvucYQpMs0NapCSy03jwoQuJFb+wJN0InR0ukRRzCX6FKNMs/hfWbTyKtUSc41kvB6S3rsNMvHElKJXJhg852tZF66QB2+wTi9NVs1G9nj4amgDwlAr47LiDXIgYHtt+AefNihO46j4JWhNCNnjjyrzmcnE0QdcATW/wfoq6rCxqbAXl3/OAbnoC4iBvIt3FBK+UlrJw8FX/ekEOmMEXTzs3w9HJpP60gBYfUsMM46H8SZ6KUaOnSArWkeQbESURERETklURzJ1L6zodxh8m0aEYvcpxyjAo1XudSN9JgEynVnXCIiJQUu/FtauQ0jy4XxtGqPrXJbfFVosLD9FE9KcnshtKcLydS11b9afmN+7RjtDW1/uwMZfl9Qo1l1jT1+FOKXdGLjKWNaIpfIRH3sMJjlNFraIBlHRqzO5uKLsyltubO9O0Fod+VlRS7sjeZt/qUAnOIiDhKOv5/1LWulCQSCZm5fk3ncoiIiin0GwcyNrKmqcc1R6uN9jsfREQcpV7bTpPaWtPHxwqJlPdpx1fz6cgjBRVGr6XB1m60OCyVbu6fTk613Gjy7560d9d31LdxX1oVoyQuI4C+GDaTfJOUpIjbTCOsbGn26SIqDJhGrUdspTQujXaPbUqDPR5R+fsD6nYzAr6gYTN9KUmpoLjNI8jKdjadLlLS/R1f0fwjj0hRGE1rB1uT2+II7TNTr9H2SW3J+uNjlJ95k/ZPd6JabpPpd8+9tOu7vtS47yqKURKR4gYt7uxM34QWq+PmPZVGfn+Bcrgiit48iuz7LqXI/Ey6dfBTcrVoT5NXr6YfZy2gjV6zqIN5V5q1dQ8dPbaaxrRoQe8sWE9eh31p+TvNqf2CCFIUBtC01iNoaxpHabvHUtPBHvSII8rxGkENx3lTPq+fhaSk+F0zaMq6KMrnkmjj0AbUe0W0AXESEREREXlVYf61i1GLt/DxhH5oXUP7M3epRAJJ6Y+4+zi0KxhZXCLObD2Cu8US3A/9B4AUUiNAYtoJk1btQdj9M/ja4jC2B2agUfNmqD1kCQ7s3Yb/61sDRjIjlF0u/mAFxyhx58BuXMirB5smNSCzsYGV4i72776A4rIeapB/ERsPFGDm5qUYUgcAcvHwbhxU3afg4051IL+1FpPmHEa6ygQ9l4UgOvoqPIab8a+iBymsXIeia3N1CLl7++EVmY+sM/vhE26GgdMGwVpZAy5De6ClWWsM/2IWJkz4GENsU/DgUTFivZYjyHY8htsYQda8H3rbqX9tN+k4HRsW9kPGqQDczgOy0rO0HwLmYuG1PAi244fDxkiG5v16w04GgLuH/V6RyM86g/0+4TAbOA2DrOWaZ0Jq5YqhXZtDCkBazwVDe7SEWevh+GLWBEz4eAhsUx7gkVLrFEB5B9v+CEHzwV1QR2oK+4/nwD3RA55nzOE8rCdsTVph0Iy5+NnzN/zvg16wNbVGjwkTMWrkDIzukA8T56mYMuZdTBnhiNQHCVCadMT0DQvRL+MUAtQDRBbvKWfNfkIZhR3rY+E0wgHmUhtM3xWG3dPaVBwnEREREZFXFubmAxITNO77Jf43uDYkAPJu30Qc/4FGLhMZ2QSY2eHtWf+HbWE5yD71ZdnLkkY2aFJydS49DRkqQtrjx+BMWuCtccPgVKv8UoYdo0J2Vg5IYgwT49Itiwo5Wdngdw14gvO/rkDqZ/uwfGA9FKalIvv6WnzxQzCajF+F7QHbMLEp4ZGfD84XAZDVR6s2jVGZrYcaCSQluzEuOwtZXGP0mDAJkybNxLe//Irp3WoBEknZBgswhpERQaVSIi4mHsqynZwUpQepChMQ5LkR4Q2GYLirJcBX7yjjEBOvLN8Elp7KZSMri0PjHhMwadIkzPz2F/w6vZv2uQAkGv0p7TsAwNgIRqTSvYFzyXicWoDCwpL/y5qiWeNC5D7l1GOTSCAtq6LyeABSGGk8MCqTSkGkgkpViIQgT2wMb4Ahw11hCYLu3xJp9JPLREZWOtLS1FmWNWwJS+RVHCcRERERkVcW7c1H2QJOIGlDDBv1FkzzI7F+6zkotA4EIGsNx7bm4O4Gwu+2HIAcsbeiy1/XuBmYtO0A59oqPAg8iJA89Z+8pmdqv19R8TEmcOraAbWRj/x8Aj19igKYwsWtPbT/AleFx75f4YtAKWre2Ih5c6bg/cV/o6AoH/kkhbGJDNJGwzGqT23I6jVEAyMVUk8uwYRx3+LQA91tTCkqIhAxbpQl4zRx6AKnOA/MXfUPUorleBy8HttC8gHdMwDI4OBih4wgb5zNVAGQQ6GQQ14sR5jHTzhtPQ4fupkj70kRiOQoLNJ4O0LmABe7DAR5n4X6VAUUcjmKTRzQxSkOHnNX4Z+UYsgfB2P9thDNRkvQGAOra4D6GFJBRQBMO8G9F+FCYKj6L4OUKUjl+mF43xrqI/nX0PmBNvIwD/x02hrjPnSDed4TFBFBXlgElUQCTqGAKi8HTziU99PYCd1ck7F7yQaEZ8mRc2MnNgc8rDhOIiIiIiKvLGWbj+LkGwg4ext5RFDeOIwVGzyxbtm3GN93GFYlN0JTIwBSaflv8VIrfLDwB/SvewO/De+H96Z/j1O5DZBz9wbuPyWoHkbgfHyB+th67+GnpaPQJHELPuz/LmZ+/xeuZyUh7NojqCgX/0beNOiY+u//iuVjaiLy4B747D+HvLcW4Y/P2kHzWyLktzfgk//twq2bfti0di3Wrt+LxLrt0KjLLPw4sRmueK3EIb8tOHTPHrNWf4e+pkrEBh/AId89CLzF/AAHqpRrOOYbgkcFUfh77wXE50P9XRS3AhByPwdRZ88irsb7WLVtMshrDOybumDqOQeM7KPE3cAQxORF49yJ2/j3yglEJKTj1ukwSD9ehz97XcUXfQdh8vxduKk0RcrlM5D1GADJ3qkYOXM1omRWyDjnjbOPNTpj1BIz1v2JXle/QN9BkzF/100oTVNwOSgb76/ahsnkhTH2TeEy9RwcRvbROBFQZd1CQMh95ESdxdkbVxEYEoO86HM4cftfXDkRgYT0Wzh9MQr3gnxxIT4RF48cRdhDC4z9YxvGPfgVk778Gb//dhxWi9ZgcuNc3PY7j5iCWzixPxJpqqe4d+I87hX+i/PHbiLulj/OxzzFv+cDcOv+NRy7EIvcu+dxXtYdAyR7MXXkTKyOksEq4xy8zz5GjfY94XJ9FT5Zcwk5mv18UAsT/tiCD4rWYUgrWwxcUYiBY1zQtl8FcRIREREReWUp+5KxilFBlbMToxpPx6VxvsjYNVr94/xk3I3NRp3WDrCpyf4Up5TitHu4l24O23bNUEvg0IqPkSMrLhoJ8kZwcGhUyY9KODxJuIu4LGPYtLVHo9LvSZOn4/4DDk3aPstHLyIiIiIiIiKVQWvzofUMwBuEwfsvERERERERkSrDfG9BRERERERERORFUYmPXUREREREREREqo74zoeIiIiIiIhItSJuPkRERERERESqFXHzISIiIiIiIlKtiJsPERERERERkWpF3HyIiIiIiIiIVCvi5kNERERERESkWhE3HyIiIiIiIiLVirj5EBEREREREalWxM2HiIiIiIiISLUibj5EREREREREqhVx8yEiIiIiIiJSrYibDxEREREREZFqRdx8iIiIiIiIiFQr4uZDREREREREpFoRNx8iIiIiIiIi1YrO5kOZFYfrkTfxIFsJLicbT1T8IwwhH/FntuDPQ9FQ8l96AaiyQrBp6QHcMaAxVU4UArYtww8LN+B0gpz/8otFlYWQTUtxwJCOVoKn94OxecU+3Hy+lzUYZvwL7iPELxhRWc9UQGry43Fmy584FP2SBqaDClkhm7D0wJ0q1nVl50cl2lXlICpgG5b9sBAbTifwX30OcEgKP47AKyng+C9Vpp8GUvz4Fi6GhCAkJAQhoRG4n1OFesJznINVqU3Nc59Xf547la3RV4wqxfXljj0//gy2/HkIz1JarxMamw8O8fs/xZg5uxB5LxIHF41Bl7d+wIVnuD+rkqPg57EUG84+ZixQLwIJJFIpJPwf8+FisWm2BwrGfo5RFsexeMMl/hHPH1U2MrPLF0yJRApphR2tBKo03L+wF6vXBOFBdRar1rh0458fvAxf70+GRR2d/a2BqJAc5QePpRtw9nH1VJEQquxMlA9VAmkVE/hM88OgdjnEbpoNj4Kx+HyUBY4v3sA/oOrII+ExzwP3jC1hVPKj5x0fTYzrN0GNfxZgyPDFuGTeAta1nqWeVMjOzEZ5F6s6B6tSm7rnVr0/z59nqtFXjGeN60sduyoZUX4eWLrhLCpdWuCvy684VErxZZrXvjcti1aW/CCbji9YTAGFZUdUAiVFL+tFdrNPUxH/pZcI93ANDXCaSxeK+a+8KDhKPTqHvjuUz3/hucI9XEP9m3xMx54pV89CReNS0M1D+ykij//zSqKMpmW97Gj26ZdYRVwqHZ3zHQkO9Zl4QfODe0hrBjjR3BdY4FxCAO0PTiWu7AcvIj7aFPp9QtatPqMzzxgsLvUozfnuED3XLlalNqtybrXxgmr0teDljl0ZvYx62c2mypdHRevyq4XRkiVLlqi3IQW4ceBXbDirgkvf7mhVxwItW1rDtH4D1JUCKIhD8J7t2HMsFEkWbeHUxEL3nQYuFZcP/IWDQeGIi72CcKNBmD3cFjLGuZQZiSPeJxEaeRU3s2uiQ6v6Am3k4c6xHdgbGIxz1/Nh49IGdWXazRYlXoT3nnAYdXKEZVoEDv0VCmWzfJxavxkn0xqhk2NDSBNPY8u6nfALT4JSmQvYdIZd7VRcOrAbPoGncTW7PtrZN4SpPAURvjtwIdcCMQe244Z5cxSH7sL5glag0I3wPPIvzJ2cYRJ1AJ5b/PGwritcGpsBOv1sBeWllZg89U/ckMugMG2Kzs2e4rL3HoQbdYKjRRi2LNmCwPAwXAw5hyA/f1xROqFX40c4tmMvAoPP4Xq+DVza1IUqJQK+Oy4g1yIGB7bfQJ0uzrDSiAHlhmHX9hR0nzMa9jJ+P3TjBQDyhPPw8buEyMvXkCKRQV4E1KprAXlcMPZs34NjoUmwaOuEJhYSqLRyZY4mSV5a43I2uwufkvhbSQFlchjORt7F9QtXkV2/HewbmgLyFEQc+guhymbIP7Uem0+moVEnRzQ05vcM4FIv48BfBxEUHofYK+EwGjQbw21lKGD0rQxVMsL3eGDt4UQ06eMI+SUvrF0fhFz7HrAtusKsCWOdnPFipUrHhZWTMfXPG5DLFDBt6gyzuz7YE26ETo5WkKIAccF7sH3PMYQmWaCtUxNYKPSMU2B+FN45hh17AxF87jrybVzQRidhRUi86F3SriXSIg7hr1AlmuWfwvrNJ5HWqBMc66Xg9JZ12OkXjiSlErmwQWe7elAlX8KB3T4IPF2eCzmvnsybFyN013kUtCKEbvTEkX/N4eRsgqgDntji/xB1XV2gLvE78PMNR0JcBG7k28CllRKX9MYH4FLDcPigP06eiYKypQta1JIir8LxaqP81w/r/jbBu58Ngy3/0Lw7OvNFO4UXsHLyVPx5Qw6ZwhRNnc1w16dkDlpJGWuOMVJZ8S0pVHZtFuqvoxKY51on42LpmmAFZEYegffJUERevYnsms5oZZGEi97euCatidj967EvvAA2Lm1R3xiAMpm9fgnVH6te+Yu4QI3K9J6rQnL4HnisPYzEJn3gKL8Er7XrEZRrjx725ux6bWhcYe4A8NYe4fuEgr9GutRBrK++PFft/qV1blEiO0fEu5fU6QJnKyD50gHs9gnE6avZqN/OHg1NAYBD6uUD+OtgEMLjYnEl3AjuYxoidNNaHE5sgj6OclzyWov1Qbmw72EPSyl/bjnB/Pof2vcbu1pIZbTFjCkPVdZ1+G7bgUPBt5CaGoNEUwdYxO4TyLElpBXFiIXmTqTw9l80tb0lGddxoNE/+tDt0t9clfdpx1fz6cgjBRVGr6XB1m60OEKheSoRl0EBXwyjmb5JpFTE0eYRVmQ7+zQVMc/NIJ+pE2lTMkdcyhFa8OspwTYKA6ZR6xFbKY1Lo91jm9Jgj0flv3WR+jeva9snUVvrj+lYfibd3D+dnGq50eTfPWnvru+ob+O+tCpG/W6O4sZi6uz8DYUWExGXRN5TR9L3F3KIK4qmzaPsqe/ScEq6dZA+dbWg9pNX0+ofZ9GCjV40u4M5dZ21lfYcPUarx7SgFu8soPVeh8l3+TvUvP0CilCQQD9zyGtEQxrnna/elV7bTpPaWtPHxwqJS/WhbT5pxBFHGQH/I0e7j+hgUj4FTGtNI7amEZe2m8Y2HUweCel06+Cn5GrRniavXk0/zv6FAtO0IkBcQvk7H+x+8MgJpFldxtOeNI4Kw+aTq2V3mr0jlB7F7KCv5h+hR4pCil47mKzdFlOEIkc3V5rj0ox/IRGX5E1TR35PF3I4KoreTKPs+9LSyHzKvLmfpjvVIrfJv5Pn3l30Xd/G1HdVDJW+z1YKlxFAXwybSb5JSlLEbaYRVrY0+3QRKe+z+sY7N3419Ws2lY4XEpEinL7v4ErzLiYL1oRhsfKiEQ3HkXqo12j7pLZk/fExKiQl3d/xFc0/8ogUhdG0drA1uS0OEx6n0PwoDKBprUfQ1jSO0naPpaaDPegRrxOa7eZn3qT9052olttk+t1zL+36ri817ruKYpREpLhBizs70zeh6nc+mLkIT9Kup1kLaKPXLOpg3pVmbd1DR4+tpjEtWtA7C9aT12FfWv5Oc2q/IIIUVKhbm484PfEhUsbvohlT1lFUPkdJG4dSg94rKPppxePlU+g3hWxaf85450OgTzxyvEZQw3HelM+bg6w1Z1HwVcH4CtWmIXXEPrdAuz85PjR14iZK5jhKObKAfj1VQMkRnjS+VSPqPW0RLV/7C33oXIeaTjpEaQqB9Uuo/pj1GsHvJLtGDTo3nlb3a0ZT1ZOPwr/vQK7zLlOhYL0akjvG2sPI2eKwVN4a+RPtO71Vb56rdv/SPJcTyNFBundD814ym34JTKEk76k08vsLlMMVUfTmUWTfdylFFnKUEfAFDZvpS0lKBcVtHkFWtrPpdBFH8av7UbOpx0m9pH1PHVzn0eVigbml1L7fsNtixJQHl+JHX46dS/4JClIkedPEFq3U79IJ5Li4whix0foA1czxY2wPj8Kpn3shZetEdOvxOfxTVeDu7YdXZD6yzuyHT7gZBk4bBGt5oeap4GK9sDzIFuOH28BI1hz9ettBBgicK4eZ5BKWT56HHbFu+HpOd4HjCmHScTo2LOyHjFMBuJ0HZKVnlX12CwCQWsF1aFc0lwKQ1oPL0B5oadYaw7+YhQkTPsYQ2xQ8eKT7MITyzjb8EdIcg7vUgdTUHh/PcUeixyZcbTMMPW1N0GrQDMz92RO//e8D9LQ1hXWPCZg4aiRmjO6AfBNnTJ0yBu9OGQHH1AdIUKLifkIKK9eh6NpcHXKp1XuY9l5DIOEAPpsTCnfPdXjfxgwdp2/Awn4ZOBVwG3nIQnqOJZyH9YStSSsMmjEXP3ssxNsNhT/3rrgfgDI2FJeeNEST2lKYuXaFaw0jtOjdGU+8vRCZn4Uz+30QbjYQ0wZZQ15opJMrLTTjDyXubPsDIc0Ho0sdKUztP8Yc90R4eJ6BuctQ9GhphtbDv8CsCRPw8RBbpDx4xHugi0Os13IE2Y7HcBsjyJr3Q287GQAO9/az+qZ1MmAsg1HZdtsYMiP9NWFIrDSRWrliaNfm6geluHvY7xWJ/Kwz2O8TDrOB0zDIWol6AuMsFpgfMOmI6RsWol/GKQSoOwH+M7qa7UrruWBoj5Ywaz0cX8yagAkfD4FtygPolrhALjZdRRvNevL8Df/7oBdsTa3RY8JEjBo5A6M75MPEeSqmjHkXU0Y4IvVBApQw0a1NXke14gMlonasR6zTCDiYS2EzfRfCdk9DmxoVj9dwKu6TNtpzkLXm2NRoIxBfodo0ZM4JnavdHxiZQXJpOSbP24FYt68xp3sNNO44GJ2a1ILL+AWYN2chvNZ+BJPAQzhzTWD9smPXn5JZr9oP9Amt4exa5z8MaAxZ+eSDsUz9RJBwvRqSO921h5Uza2UN3hq5CB/2G6Y3z1W7f2meKxXI0WHc1LqXeGDhoHRs+yMEzQd3QR2pKew/ngP3RA94/n0bXsuDYDt+OGyMZGjerzdKSgvGMqPydxCMZSXPWQnMrdKHsABAeYfdVrBCJ6bacLjntQLhrlMxtJkMskad4NKs9MLsHFccIzbldzHuAS5degjOpAnemrMNIVd98EHxX/hjXwK47CxkcY3RY8IkTJo0E9/+8iumd6uldSFlXAzilZKyQJU+fsg+1xoj1v2NNX0eYcPo9nBfeE7guFpQFSYgyHMjwhsMwXBXS4BIq11A/ZCbpLRhSXkfAGMYGRFU/JoGwCU/RmpBIUpDJGvaDI0Lc/GUk0AiUT9AWYpE45pSI40HK2VSSEl9fYP6CfW1y1DehefMBXgwcSuWDawLQIXChCB4bgxHgyHDUXYZifo8jS4JYkg/ZM4jMbZxBA4GJSA57DJS3T7A8JZAdlYWuMY9MGHSJEya+S1++XU6utWqqZMrHcrizyH5cSoKCsuiiqbNGqMw9yk4aOQIgLGREUgnMUrExcRDWXagFOpgcwJ90z5bEIGaMCRWfMpqgctGVhaHxj0mYNKkSZj57S/4dXq3khyXH186TqH5AVUhEoI8sTG8AYYMd4UlCKxeaNagVg0ZG8GIVIxNk55c6NSTZl1KYaTxlJ5MKgWRCiqh2uRR3k8OmRlZSE9LUz+0J2uIlpZAntKw8VZMMbIynxjUJ23Kxyq05rDjK1SbhtSR8Llasa85Auv+XoM+jzZgdHt3LDyXWnpQ2fEmDg6wBQd5ir71q/y0snkmWK/lCNaoAefqgx1PQ+pJd+0RypnuGllxnjURGrsh55bBy5GypA9l9xIuGY9TC1A+JZuiWeNC5ObeR0y8sjxvmuXBRGBuaS4CQm09raETU22UeBiXCJUhf8BRQqVipEH57YwycWrrTlwtUP/XyLo3+jo3QIOGFjBx6AKnOA/MXfUPUorleBy8HttC8suvAkDm4AK7jCB4n82ECoBcoYBcXixwbiL8j9xF7x8PIOLyEjQ8ekDguGyEefyE09bj8KGbOfKeFIFIjsIinV/zNApXp4LLIQKpVCAApp3c0YsuIDD0KQBAmZIKrt9w9K2hdbHSE/VdFYBcoJ8qSCQcFAoV8nKeqAul7NoFCP9tGlap5sLrh26w4BJxLSIAHj+dhvW4D+FmnocnRQSSF6JIyegSE6F+8OIls4L94DF4q8Yd3JB+ggNHv4CTzAQOXZwQ5zEXq/5JQbH8MYLXb0NIfpZOrgCpzrjU/TNFJ/deoAuBUIdViZRUDv2G90UN/ZkpQQYHFztkBHnjbKYKgBwKhRzyYqG+aZ8trWEOs8IsZBYAXGoM4rOLIJdDoGUDYyWVQMIpoFDlIecJV14LJg7o4hQHj7mr8E9KMeSPg7F+Wwgg0JrQ/JCHeeCn09YY96EbzPOeoIgI8sIixp/4adQgqwFAfQypoDIkF/xr6PyAhzyMXZsqgfjAGE7dXJG8ewk2hGdBnnMDOzcH4OEl9njlmTdxLvIxv1U1pCqbt6XIo71x+FI4u086KZSAUyigysuBuovqK7HXnHyB+ArVpiF1JHRuyculsc/yx5G7vfHjgQhcXtIQRw+o6wlUhKIC9TGK+AfI7TkQb3UXXr+Y3ddTr6UI1agh50JaA+ZmhchSTz7ExGejSD352B0Sqiet3OmuPYI5Y5VwRXnWQGjshpwLsHPU04zXKdNOcO9FuBAYCvWUTEEq1w/D+7nCxS4DQd5noS4PBRRyOYohRQ1zMxRmZaIAHFJj4pFdJIdcYG4lqzTW5cI26M9qq2+hTky1kcGuXUvcO7QFZ1NVUOU+RGLpO1ICOTY4RjzKHzhVpSLi4F/wPnEZkREXcOLAHlxr+g1WfOkGy5rt0N0hE37L52H+bztxtcEkfPeJI2ppbI2klu3RudEtbFrwK7wjHyIjKQ4xOeZo/dYnmNwzV/vcyc1wbdlMrLlejPzUdEjcPsAQ96GMNpzQUHEPu39fA//oJ6gpS8X5iFy0cx8I+7ol+yZVFm4e3ISNR6Nh2qUbWtzygafPLUhc+8Iu/xR2bwtAfK2ecHeV49JfnvAKiodZWxfYuwzEMNd07F62GWEPHyA8ygITF89C66Qj2LrZBxH5zdGjdwfUfuSPLZ4HcY1zQB9nIHTvVvjcUMGpdzvIz+7GlsO3IXMbhCEt0+Gt08/BaJt7Cuu2BqHY/i04FZ7E5o1HEW3aBT0kXpj8VQScxvWGLOYKLgVsR0D22xhS2w+/r/FH9JOakKWeR8STZmiWew77fSOQ37wHenew0X5ITJWNqEObsPFINMzc3DG6Zbr+eAFQZZ7ArzMWY2/IFVw+dxJH/S7gcf2uGPjOILTL9MPyefPx286raDDpO3ziAIQs5eWqpy3o4d/qcdl1RJ2re7H5aDRMuwzEmHdGwDF9N5ZtDsPDB+GIspiIxZ+5QRJ9BFs9fXBL4oq+dvk4tXsbAuJroad7H9jWKX1bTwrL9p3R6NYmLPjVG5EPM5AUF4Mc89Z465PJ6JnL65tjLe3duUk9qKLW4IeVgbjLWaN2ylUkGbdAvZRT2OPLr4leGNmtGMdW6I8VjAgP/16HrUHFsOtYB1f3bsbRaFN0GTgEI992Qabfcsyb/xt2Xm2ASd99goaPjjLH2XvsZ3iv7R2d+dGmnxvo+Eqs8Y/Gk5oypJ6PQG47dwy0r1v2m4Eq6yYObtqobrebFW75bIXPLQlc+9oh/9RubAuIR62eXdD03iF4egUh3qwtXOxbw677W7q5mNUaSUe2YrNPaT3VxiP/LfA8eA2cQx84IxR7t/rghsoJvdvJcXb3Fhy+LYPboCFome6tXZu57eA+uC1yT7Hi8xY69O6FNo998fM332P18XT0+PJbDG8D3Nv9O2+8/eFw5Xu8u7YAX03Wfhu46OFF7N+6GQdD7iIxKQ5Xz/yNAN+t+Hl5LHovng6HhN26fRpor35IvgQjeoi/121FULEdOta5ir2b1XNw4JCReNuFt+aMkeDUNk9GfAdh7Ch3Rm22QT83wvGV+upIqK5t0db8Ory3qfszoGMyNn62BteL85GaLoHbB1PQs1khLv61EcGPFShMuoaTFzi8v+QrdG/qhF6O/PXrM7RJZtdfT/fBGDbESade22gs4oJreNd+GD1Mt9Y1zwVMUE8VhTU/rETgXQ7WtVNwNckYjg51cOPgZt149hqJ3sXH9OdOlYcL/LWHdZ+YbIMErZpujOJbB7GpZK1l5rkq9y/euaBsRo7mwCH5qNa9xMbCAu16OSJ99zJsDnuIB+FRsJi4GJ91bokOnRvh1qYF+NU7Eg8zkhAXkwPz1l0xpLslotb8gJWBd8FZ10bK1SQYO3bD2+8M1plbw5rWKF+X7Ydhxsc9kMFvq6MRYz1voTEYKeq5OMMiZDW+WrgFl3Ibo3byFcB9NobbmrNz3G8KJnTP0R8jBhIinf2iyH8c5b09WBXSFhMG1Ebuk6fIy4qFz+Fk/G/tXLTV/NxQRETk5cLdx8r+QxG/OAqe7qb8V0VeBf7LOeJisbzfMCT8dAseA57v2Ax4ikDkv0Uxzq9bCt+rMUjiLGHdpBEsCrNg1XMgWoobDxGRVwwOKpUKnO7ncCKvDP/lHCnBcSqQ7kNlVUbcfLxxmKL/z7vwZaNQeMz/DJ/NX4ezksGYM8EFJvxDRUREXiJyJIadR1az9pDcPIN7efzXRV4+/+UcqZBy5QKym7WH5FYI4kqeB31eiB+7iIiIiIiIiFQr4jsfIiIiIiIiItXKK7j5eLlGQX28aNvgi7PTPsX94M1Yse+mOqZVMj6KiIiIiIhUjVdu8/FSjYL6qKptsCJeoJ1WlXYfF/auxpqgB2Ubumc1PvINoSIiIiIiIpXlldt8SK07Y2iXpmW67lcGqTU6D+2Cpi+qY1IruAzogCYvICNSKxcM6NCkPNnSeuj16XyMa8fXOFWMKs0fS1aeQRH/BREREREREQPRsNqqdI2K9SuyAaptm97XpKgZux/r94WjwMYFbeTXsMdD2MbHtJMabBTUb51UDyUNYTtWYvXus4g3t0enFlLcP+6J9Sfy0LpLaxg/4LVvnKrHBKlrGxw0ezhsZbqWR+NU/fbZimye2nZaQMkwkgrmSQNdk6gEuWG7sD2lO+aMtoesKFHDpMnKMTvGDrisbQjtbAdTfix1LLhsa6KIiIiIyJtL+V3ryWHMW5OOtz+ZipH1YxCWwAFcHP76YSueDv4K8z40xc5Rb+PnyPLPBFQpUTi+fhEWrVyDfbclMP53Kya6/w9HZJ3QxzQCO4LjoTRqgm7tCxG8PwQpHMDF/YUftj7F4K/m4UPTnRj19s+IlGcicO5U7DB7F19++Q5qJCeqP3JhtP/T6ds4t+UXLFjxJ3ZdMUIzeSA+n7URsZofhUit0GWUC9J9A5Bc2wpSWKBuUR7Mu/eBzUN++z/h9O1z2PLLAqz4cxeuGDWDPPBzzNoYCw4qZAbOxdQdZnj3yy/xTo1kJKo7hri/fsDWp4Px1bwPYbpzFN7+6TT+vbAdv33/OzadeoC8R7FI1Pyy/aJAzB25DbKJX2Fa09OYPssLSXo+u1A9PohP/+eP5hO/wldjjLF9zAgsu1LEzpMG3IPdmPV9ONqN/xTjLQ7i3Q/+xD2tQ1RIiz6FTT//Bv/7ykrFOK5eH/zvg46waDsC//fFMLTQieXPiFQ+weF5a5D+9ieYOrI+YsISNBsXERERERHR2HzoGBVNK7TVSRt3xOBOTVDLZTwWzJuDhV5r8ZFJIA6dLxKw8bHtpIVRhhsFha2TZd0CAEjrv4PPP1TAe3sIiriH8I9tgvc6GzPat0GNNkImyFi2bZBlebThmxV59lkD7KXlCBhJPYNRxMiT5nkV2g6rZPbUvA47lxVacEVERERE3njK744Mo6LhtroynR8cbKHnm97YdlK3tMoZBdmWRD4m6DzjE9j4bYJviD/S7EbB1ojdfrdaAiZIZRzbNihkedQxK2pgoL1UjR4jKSNPmudVaDsEDDI+VhxjoVjqmihFREREREQ0Kb9NMoyKhtnqCEVFBeobqSIeD3J7YmBPcwEbH9tOerl5JY2CwndtLYxsP8KMbqFYuCQbXd+uDwi0L3hJmQPbNqjH8ij0lW2G20uh30jKyFM5QrZDjUNKqcj4KDCOckNoAWzcWLHUNVECKmTePIfIF/JnQiIiIiIirxtlmw+VMhV+P32KH9bvxMl0Z8z51B2o/z5WbZsM8hoD+6YumHrOASP7WGhfAUDhdR8sX7MBf/5yEObz12BqcynquI/HkLsLMWDYp9iVUhc2skT8888D1H9/FbZNJniNsUdTl6k45zAS/RxnYN2fvXD1i74YNHk+dt1UwjTlMoKyh+u275qAwJAY5EWfw4nb/+LKiQgkpN/C6YuMZwukDTHqf+PQ1X0Uepurf8Rq3zUhECExeYg+dwK3/72CExEJSL91GheTbDBj3Z/odfUL9B00GfN33YTSNAWXg7Lx/qptmExeGGPfFC5Tz8FhhAtu+51HTMEtnNgfiTTeDV/Wth8GSPZi6siZWB0lg1XGOXif1VCIq7Jx++9LiM+OwtngWNQf+we2jXuAXyd9iZ9//w3HrRZhzWQbgJWnMqRoNOEPbPmgCOuGtILtwBUoHDgG9nm38feleGRHnUVwbC6ybgUg5H4Oos6eRVwNRo71xLhG+55wub4Kn6y5BNl7urHsU0OJVL+f8OkP67HzZDqc53wKqJJwZNEUfO9zX6OvIiIiIiJvKlX8enUO91f2x9D4xYjydMfzdd6JiIiIiIiI/BdhPZ1QKTiVCirhhzxERERERERERLSo0uZDnhiG81nN0F5yE2f+Wzo/ERERERERkRdEFT92ERERERERERGpHFV650NEREREREREpLKImw8RERERERGRakXcfIiIiIiIiIhUK+LmQ0RERERERKRaETcfIiIiIiIiItWKuPkQERERERERqVbEzYeIiIiIiIhItSJuPkRERERERESqFXHzISIiIiIiIlKtiJsPERERERERkWpF3HyIiIiIiIiIVCvi5kNERERERESkWhE3HyIiIiIiIiLVirj5EBEREREREalWxM2HiIiIiIiISLVStvkoSLyB0JAQhISEIDT0Ii5H3kJsaj5U2se/QPIRf2YL/jwUDSX/pWqhuttXIStkE5YeuGNAeyrkRAVg27IfsHDDaSTI+a9XFQ5J4ccReCUFHP8lAKqsEGxaegB3Ku5otZAffwZb/jyE6FekP1XnRdXeU9wP3owV+24+w3ULcD/ED8FRWYw1QLO/lanjKpAfjzNb/sShF5D0qtQ389yC+wjxC0ZUlm7kXi7VlCsBVOk3ccr/IuKL+K+8LF7UvCvlJcRblYWQTUtx4FmKmUVBIm6EqvcFIaGhuHg5ErdiU5H/HEq7bPNh1tAGxqe+xqD3f8XJmEdIuHseO78eBOcuE7A6NJOxAD1fVMlR8PNYig1nHzNvgC+aqravys5EdmWDJJFAKpXwf6oDF7sJsz0KMPbzUbA4vhgbLj3n3Yc8Eh7zPHDP2BJGJT/SHo8EEqkUFfe0GlAlI8rPA0s3nMXjZ0nUK0hVa08IVdp9XNi7GmuCHlR+8csPxrKv9yPZoo7O26M6/TWwjp8dFZKj/OCxdAPOvpCkV6W+dc/ND16Gr/cnw6IOP3KvAC88V0JweLh3AZaEymFpxn/t5aBTxy+CCuOtQnZm9nO9v0okUuhtsjKYNYSN8Sl8Peh9/HoyBo8S7uL8zq8xyLkLJqwORWZVOk4a5PuMp/oO31BocdlP6Nry/lTP6h3aGqfUPPQFoKToZb3IbvZpKuK/VC1UoX0ulY7O+Y4O5fNfeB5w9HDNAHKae4HK0vKc4RICaH9wKnFlP3iR46k6yuhl1MtuNp2udKJeVapQe3rh6OGa/tTk42NUyH+pAhQ3D9H+iDz+j0t4Uf3VgzKalvWyo9mvfNIVdPPQfhIM3RtLDp3bd5he+G2kUryEOubBpR6lOd8dold0qVWT70Pj6zvQN+UbA8q/tpz617Oid7bG0bOm1GjJkiVLSjciijuH8efZ2vhw1mA0MwIAYzTu2AQPt/yCQ6rhmDHABtKCOATv2Y49x0KRZNEWTk0sGL8xcEgNO4yD/idxJkqJli4tUEuahzvHdmBvYDDOXc+HjUsb1JUB4FJx+cBfOBgUjrjYKwg3GoTZw20hy7uDYzv2IjD4HK7n28ClTV3IeK0UJV6Et/c1SGvGYv/6fQgvsIFL2/qglAj47riAXIsYHNh+A3W6OMMKybh0YDd8Ak/janZ9tLNvCFOw2nfHmIah2LT2MBKb9IGj/BK81q5HUK49ethbQsqlIuzwQfifPIMoZUu4NCtC6MrJmPrnDchlCpg27Qy7WqnstrR7j8SL3tgTboROjpZIiziEv0KVaJZ/Cus3n0Rao05wbChF4uktWLfTD+FJSihzAZvOdqidegkHdvsg8PRVZNdvB/uGppDzx9y+IRL9vXC+oBUodCM8j/wLcydnmEQdgOcWfzys6wqXxmZA3h34+YYjIS4CN/Jt4NJKiUu88TR7ehnee8Jh1MkRVlKASw3D4YP+OHkmCsqWLmhRSwooBeKrhQqZkUfgfTIUkVdvIrumM1rVlwKG1tTlA/jrYBDC42JxJdwIg2YPh62sAHHBe7B9zzGEJlmgrVMTWFAmIo9442RoJK7ezEZN51ZQNxOMPdv34FhoEizaOqGJhQR5d45hx95ABJ+7jnwbF7Spy68yAJAj4bwP/C5F4vK1FEhkchSkRiNghwcOJzZBH0c5LnmtxfqgXNj3sIclq9ZVKYjw3YELuRaIObAdN+p0gXP9TINrX8XPbxdnWPG6qjs+IDdsF7andMec0fY684c9TwEokxF2NhJ3r1+oYK4Mwuzh1kguq2MrSBmxKkIt1LWQQZmsW7cVwaVexoG/DiIoPA6xV8JhNGg2htvKmDVDmZE44n0SoZFXcTO7Jjq0qg/w52sLU6RF+GLHhVxYxBzA9ht10KVObHl9yxNx0dsb16Q1Ebt/PfaFF8DGpS3qG6vHr32tWpAnXtSaG8rkMJyNvIvrFzTGKE9BxKG/EKpshvxT67H5ZBoadXJEQ2P+aDUoEuqHHCm8/vdxrqk7BySseSrXWHOsIIUSyZcOYLdPIE5fzUb9dvbQSYkqBf9s/B1r9ocg2dIB7Zsa40HAOvxxNAO23exRV+PNHXlKBA79FQpls3ycWr8ZJ9MaoZODEtf2eGDt4XT0mvUuLMK8sHZ9EHLte8DePB1XjhiwRoExxxWM+VQv3YA1SKiObSFj1JTuOsSfZ+1gEX8E61dvxeGIQrR2kCNw1ToEPW2Jzm3N8Vgj3uDVp2utO1g5eSr+vCGHTGGKpp3tYPqAP4cVSGHeG4zZ81eeiIveexBu1AmOVlLm+qZizRN9KO7g8J9nUfvDWRis3hjAuHFHNHm4Bb8cUmH4jAGwKTIsdlpo7kTyfT7kvfNBRJRBW4aaUo1RuyhPeZ92fDWfjjxSUGH0Whps7UaLIxSaBxORkuJ3zaAp66Ion0uijUMbUO8V0VQYMI1aj9hKaVwa7R7blAZ7PCKOy6CAL4bRTN8kUiriaPMIK7KdfZqKqJACprWmEVvTiEvbTWObDiaPR2W/l6vhkinCczy1atSbpi1aTmt/+ZCc6zSlSQfv0Y2Dn5KrRXuavHo1/Tj7FwpMSSTvqSPp+ws5xBVF0+ZR9tR3aSQVCrXPxdPqfs1o6vFCIlJQ+PcdyHXeZSpWxtOuGVNoXVQ+cUkbaWiD3rQiWkmU40UjGo4j73wi4pLYbWn3nrjUa7R9Uluy/vgY5WfepP3TnaiW22T63XMv7fquLzXuu4pilERECrqxuDM5fxNKxUTEJXnT1JHf04UcjoqiN9Mo+760NDyJbmmN+Sfy/seHZncwp66zttKeo8do9ZgW1OKdBbTe6zD5Ln+HmrdfQBEKgThrjSeVrm2fRG2tP6ZjhUTK+F00Y8o6isrnKGnjUGrQewVFyw0bM+X40NSJmyiZ4yjlyAL69VQRkUE1xVFGwBc0bKYvJSkVFLd5BFnZzqbTRUq6v+Mrmn/kESkKo2ntYGtyWxxBOT5TaeKmZOK4FDqy4FdSN7ODvpp/hB4pCil67WCydltMEXkBNK31CNqaxlHa7rHUdLAH8cuMiCgncBZ1Gb+H0rhCCpvvSpbdZ9OO0CSKX92Pmk09ToVEpAj/njq4zqPLxcSo9QRKv3WQPnW1oPaTV9PqH2fTL8ej2bXHqv2EdF5+f6HANO2OMsen4ChB8J0P9jwVrF+BuVKgUceFgrFKZtdtpG6vNOEyAuiLYTPJN0lJirjNNMLKVv3OB7NmMshn6kTalMwRl3KEFvx6iogxX3+/fJ0OfupKFu0n0+rVP9Lsn/Zp1DdHyRGeNL5VI+o9bREtX/sLfehch5pOOkRpct1rrbjzWGtusMeYT5k399N0p1rkNvl38ty7i77r25j6rorR8xujcD9S0m9p9/8Xf+YcYM3TO481c8VRkvdUGvn9Bcrhiih68yiy77uUWClR3vegIY3705oH6prLPPB/NC8gV/sgLpNu7p9OTrXcaPLvnrR313fUt3FfWhWjJC5+NfVrNpXUy2k4fd/BleZdLqSsKF8D1ijWHA+jTJ35dJNdt9q9JBKo4yJmTfHXIaF5pqCYzSOoicMXFBztTd99600PldprfCHl6NYnEeV4jaCG47wpX+DaYalC9wbW/L1Dqde206S21vTxsUKiQtb6xu6HXvJ96EPeOx9ERBlbhpJpjVG0K8ew2PGp+ENJlQIKJWBqZga6tx9ekfnIOrMfPuFmGDhtEKzlhdrHK6OwY30snEY4wFxqg+m7wrB7WhuYdJyODQv7IeNUAG7nAVnpWVDEemF5kC3GD7eBkaw5+vW2K/ntzAQdp2/Awn4ZOBVwG3nIQjr/4S1pY3Qc3AlNarlg/IJ5mLPQC2s/MkHg4ZtoM6wnbE1aYdCMufjZYyEGpXvhj5DmGNylDqSm9vh4jjsSPTzx922h9o0hMyrftxnL1Ls9ZdQOrI91wggHc0htpmNX2G5Ma1P6lIQa5Z1tzLaCeQ9ZSa1cMbRrc0gBSOu5YGiPljBrPRxfzJqACR8PgW3KAzzS+aBeiTvb/kBI88HoUkcKU/uPMcc9ER6brvLGvAjj+gxDT1tTWPeYgImjRmLG6A7IN3HG1Clj8O6UEXBMfYAEpSFxtoLr0K5oLlW3H7VjPWKdRsDBXAqb6bsQtnsaWt4zbMwwMoPk0nJMnrcDsW5fY053U3CG1BQXC6/lQbAdPxw2RjI079cbdjIA3D3s94pEftYZ7PcJh9nAaRhkLYeRmQSXlk/GvB2xcPt6Drqbcri33wuR+Vk4s98H4WYDMW2QNeRcR0zfsBD9Mk4hQF2U4A8fUCI29BKeNGyC2lIzuHZ1RQ2jFujdrTGMZUblu3tjWdnzMrq1ngNL52HoaWuCVoNmYO7PHvjezk+g9hg5ybGEM6+m326oOXUFxscLoxYC81SofoXmimYdC8eqAbtuPYPBL5FyOMR6LUeQ7XgMtzGCrHk/9LZTR4hdM3KYSS5h+eR52BHrhq/ndGfO1xmd22NYT1uYtBqEGXN/hseiDzXqW4rGHQejU5NacBm/APPmLITX2o9gEngIZ67oXmtaW2utucEe4xmYuwxFj5ZmaD38C8yaMAEfD7FFyoNHep7DEe7HBXNn7f5/34oxBwqY87SttUaulHew7Y8QNB/cBXWkprD/eA7cEz3gqTNpAaNWn2D++8nw2hiOYlUSjkZYYszAWtoHSevBZWgPtDRrjeFfzMKECR9jiG0KHjxSqudG+USBejmVoq7T0IrXqGLWHFeiHm8+zW9xhFm3/OFwAvccdk3xJ5DQPJOhzXQPLHU8iklTrsP9+3FobsSfG0Y69WnItZU1BO4NRaz52xZWrkPRVV2QgAlrfauoH4aigkK9MYBJrCGx06XizUfuRVy+bYoufbvBODsLWVxj9JgwCZMmzcS3v/yK6d14RchlIiMrHWlp6kd4ZA1bwhJ5UBUmIMhzI8IbDMFwV0uACMq4GMQrJWULePljWyoUJgTBc2M4GgwZjpLDBVGfZQIHB1uAUwISCSQSCaQlo+OSHyO1oBCl4ZA1bYbGhbnIvS/UPhsuMwNZ6WlQD02Ghi0tgTztu5VQW08ZTzRJJOVtSyQabRsbwYhUjIeQOCQ/TkVBYdnV0bRZYxTmPgXHGzN415caaYxOJoWUCCqVgXGWSKDuHofMjCykp6WpH9CSNURLSyAnycAx1xyBdX+vQZ9HGzC6vTsWnksFZ0hNKeMQE68s6YO6atXdyUZWFofGPSZg0qRJmPntL/h1ejfUHLEOf6/pg0cbRqO9+0KcS1UgOysLXOMemDBpEibN/Ba//Dod3SwKkRDkiY3hDTBkuCssQdAdvgzOI8eiccRBBCUkI+xyKtw+GI6W2ntOLVi1DqjzIylJUKVrn5Hfcjj2+Hhh1EJgngrVr765Ul5nQrHSU7dlV+GjRFxMPJQ6SYdAzVhjxLq/sabPI2wY3R7uC88JzleJRKJ+KK+0qbL61qDk/yYODrAFB3kW+1qac0N4jNrXNzYyAql0ZzcTXj+UpfEu7T9zDnRmzlN1d0tyxSXjcWoByrvbFM0aFyJXZ9ICgDn6zJmJ+t6rcfCyD+42eQ9dTPjHlMSx7D/GMDIiVDTMCtcoBWt83XTmk1Dd8ocjNO/YNcWfQHrmmbQx3NzfQoOkv3H69tOyM8rHV1OnPrURvjbz3iAwf0vjAgBQsda3ivphKLm4ePk2TLv0hVuBIbHTRXspI5X24qtKw9+Lf0ZQ86+wZHJzmDl0gVOcB+au+gcpxXI8Dl6PbSH5mmcAxk7o5pqM3Us2IDxLjpwbO7E54CHCPH7Caetx+NDNHHlPikAkh8LWEXYZQfA+q/5rGrlCAbm8GJCHweOn07Ae9yHczPPwpIhA8kIUMX5VoKIiFBAAKBD/IBc9B/aEGbRvoqad3NGLLiAwVF0UypRUcP2Go5+rC7t9aQ2YmxUiK7MA4FIRE5+NIrkcxk7d4Jq8G0s2hCNLnoMbOzcjIFkFSCWQcAooVHkobNOf2VbfGuX9KUfjZqd71yuDiKBSEQBTdHLvBboQCPXllUhJ5dBveF/U4I255Ex9lxWOs6p8PDlP1MWtvrYxnLq5Inn3EmwIz4I85wZ2bg5AVgd2fHXGnOWPI3d748cDEbi8pCGOHgiBiSE1JXOAi10GgrzPqp+uliugkMtRbOKALk5x8Ji7Cv+kFEP+OBjrt4Ugy/8I7vb+EQciLmNJw6M4EAI4dHFCnMdcrPonBcXyxwhevw1nz3ngp9PWGPehG8zznqCICPLCIp3fSGVW9hg85i3UuHMD0k8O4OgXTpBBihrmZijMykQBOKTGxCO7SA455MxaLyxSaiVI5iBQe0I50T6dhwlzfPwwasGcp8mVnyuAVp2xY6Wnbgse4NLpa0jVuefJ4OBih4wgb5xVJx0KhRzyYgjUTCL8j9xF7x8PIOLyEjQ8ekB4vjLmhVZsqQhF6kUFivgHyO05EH06Cl2r9Fw9YxSc3gV4cOk0rukOXg2jHz3NoN1/5hwIY85TdXdLzjXtBPdehAuBoVB3NwWpXD8M15m0aozaTMGX/SLw46dRsH/PvuxdPm3Yo5TWMIdZYRbUy2kM4rOLIC/7gz3dXGjBHF+I+jWNpAnVLX84QvOOXVP8CSQ8z/IubcTB2gsRsNIBh2YtxJmc0nNKx5elU58AIJVIwCkUUOUVwMaNfW1mgATmL1AeF3kYa317jKOMfqgyb+Jc5GPNFjQgqLT6oELa34vxc1BzfLVkMto4GhI7BqWfvzy9f542T25LxnW70OQffqPfly6iuZPfpQ/+bzuFZ5Z+vqykBP/5NLhtPardoC0N+eEEPWZ8Rq6I86Wv+rUgyzo25DbBgyLzOErz+5zaN3WkITMW0YpZPalF32/o2P08ivKaQl3bONKASd/Qd++7UdsRi8jv3gPy+7w9NXUcQjMWraBZPVtQ32+O0X3ex0jK2BXUu35HmrTkT1q/+gea86Mv3S/Opqj908jR1I4+2hZBqRypP0M9sZBG9B9Nc35aRj9+u5SOJ3BEVMhuPyaX4nd/RPbN2tPb05bSui96k+PYX+lUfD7F+X5F/VpYUh0bN5rgEUl5RESKq7TsLVvqMPZnCkyQC7SlDZd5nbaOtyULt68o8PoV2jfFnsxcZ9GhqHsUtm4sNbfsQwvOPKSc6AD6sX89qtX9a/K+/IAKuWQ6sXAE9R89h35a9iN9u/Q4JSh0x5wXfYhmOplRu2n76Mb9m3RghjPVcPmUDt6Mpas7JlPbGh3o86OX6SArzoUa43mQRte3jidbCzf6KvA+kSKOfL/qRy0s65CN2wTyiMzTE1/emFO30ji392jBum20YeFcWvVPtsE1VRjlRVO6tiHHAZPom+/eJ7e2I2iRXwwpE/xp/uC2VK92A2o75Ac68VhBqVvHkdt7C2jdtg20cO4qUjeTQP7zB1PberWpQdsh9MOJx6RI86PP2zclxyEzaNGKWdSzRV/65th90i4zjtL2fUBNrdpQe7cu1L13fxrxyVI6mcSRMn43fWTfjNq/PY2WrvuCejuOpV9P3WfU+te098QemuZoSnYfbaOIVD21x6r9r/fSiT38mubBGl/WTdr6QUsyd/uK/GN0//xCd56Snlyy+3s04lJ5Hd/PE4wVseqWIyoKmEEtLJvQ+F1p/O4RFUaR15Su1MZxAE365jt6360tjVjkRzH5jJpRpNLWcW703oJ1tG3DQpq76h8iUujM1yfZUbR/miOZ2n1E2yJSieMytetbGUsretenjpOW0J/rV9MPc34k3/sK5rXy+OcKjDHnzj6aYm9GrrMOUdS9MFo3tjlZ9llAZ/49SjNaWFKT8btIZ/QC/eD4/SdizAGOOU+11pz7+cQln6CFI/rT6Dk/0bIfv6WlxxPK/+KNgSLyRxo46SBl8V8gIqIcurNvCtmbudKsQ1F0L2wdjW1uSX0WnKGHBfG0+yN7atb+bZq2dB190duRxv56iqJuGrBG+cXQE53xKSg7aj9vPgnVLR92HfvF5OrWFOt0xjzLueZJ7/X4gHY9UBL3yJsmNjellmNW0z93rpbHOyaeUZ9EiqvL6C3bDjT250BKKNa9NpdzR/DeoDt/Ocq8vpXG21qQ21eBFPOAsb4dCaNNOv3gKGHrKGo5cA1/tERP79P5zZOprXFd6jL5B/rt96W0aO5keveD/6Pt4Zkl9cKYj6zY8ZAQCf8+9arD3V+J/kPjsTjKE+7Mx5pFRKqKEvf2rEJI2wkYUDsXT57mISvWB4eT/4cNc9vyD37DebZYySP+wIqEqVg4ti7/peqHu4+V/YcifnEUPKtjUZFH4I8VCZi6cCy0Rl/d/TCAnGOLsaH2d1jY35z/kohIpWF+gvzawKmgUqk/BxUReSEUn8e6pb64GpMEztIaTRpZoDDLCj0HtuQfKfIMseISQnAotjOmjH4FNh4AAA4qlQpcdSwqXAJCDsWi85TR2hsP9YvV1w+9cIg7+jsW/74UC4MbYWxfceMh8nzQ+p6P1wp5Ii4fO4/ovGJI69nB1a4B+2+6RUSqgqwlunezwB2//dh78DhC/lXC8YPZeLfdK/I1ja8SzxAraZ3mcHFpidqvxK9BciRePobz0XkoltaDnasdGrzIRUVaB81dXNBSZ/DV3A+9ELKu++Po9VoY98MX6PYqfmuryGvJa/2xi4iIiIiIiMjrh7iNFREREREREalWnsPm43mYAbXtm0xT5CvKf82w+vzH86xmVX1WVe1+vj71wiH7tj82rPbFvwJ/XfkyeXo/GJtX7MNNJYCn9xG8eQX23VRCr53zBdpmta79vG2dPJg19NLstCqk3zwF/4vxer6ErRp57jlmrQkqpN/4G8cvPYSmNlOVE4WAbcvww8INOP38dd4iL5Eqbz6ehxlQ176pa4o0nOdvCRTkv2ZYfQHj0c2tgeixqur2syr1Uo1waYi7sB9/bjqPx5UKRjWgSsP9C3uxek0QHihVSLt/AXtXr0HQg5KOMu2cL9I2q3vt52rr1EG3hl6anZZ7iL0LliBUbgnhp2WqC908VIgqG5l6FN/MNYGLw87vf0O4yhJl31/GxWLTbA8UjP0coyyOY/GGS2XXEHn9qfKsklp3xtAuTQW+dMYwpFYuGNChSVlnpPV64dP549BO14RVIao0fyxZeaZ6fmOQWqPz0C5oWpXBv0q8gPHwc2soyjgFBnpsxSRbRmd4/axKvVQrRtbo0M8ZjV7YDbQKSK3gMqADmkgBQAorlwHooP4PACnq9foU88e148nppLDuPBRdnmfBlMG7trQeen06H+NeUJJ1a0iJOMVAeGydBFYJvlCeJqDRtD34rZ/u38BUP5XNsQpp/kuw8ozwCsxcE/IS0eTT3Vjcq07Zj1RJAfC9WQPWFrXQ9fuTCFnxluYZIq852n/twrA2SsEwdMrUx7LMgIUMix4fXduiRMu+qeSZInVsncapTEtk/ZwLBlgCNVf+Z7WsvizDKsMYqnqKmCObsfZwIpr0cYT8koY10jJfN3csu6qVhD2ewsrbVXXHpd+sqlsLakMu06oqEHfrZO16kSech4/fJURevoYUiQzyIqBWXQugMlZVfSZSpsFXjtQrR+B1vgCtKBQbPY/gX3MnOJtE4YDnFvg/rAtXl8YwyQjBXwfy0KN/Mfw2+uAG1xyurepCJmfkpWZCBXWoAcOEKxM0o4JZ48gNw67tKeg+ZzTsjXIRtms7UrrPwWh7Jc+GKmybZZprVew5IATz2tbJ5bZOyzTdWFnJdece0+wqZa5zz8dOq0LKPxvx+5r9CEm2hEP7pjB+EIB1fxxFhm032JcpYOVMU6mD8hr2eKzF4fRemPWuBcLKTMm2KL5WcW2ZgZVXY6TqWHDrVWyzFcqDrYwxx0urUoX0CysxeeqfuCGXQWHaFJ3t6qJI53j+mlCAuJBQhEeew6WS3Jk9Oo0t63bCLzwJSrXOG3a1GbZwfTlhzlORV4ayrxtjGCBXRCsZhk49NlqmRU/jK81IwIqq1LBv8i2qOqa/RRR8VdgSWZElUEu290yW1ZdnWBU0hjKtkcWM3DHsqoEpAuOpvF2VOS49ZlVmLQgacgXiXqBdL5QTSLO6jKc9aRwVhs0nV8vuNHtHKCUlsoyj/B6VwgmbSAWsr/lZUeQ7uwOZd51FW/ccpWOrx1CLFu/QgvVedNh3Ob3TvD0tiFCQ8u5S6mHTm6b/9Aet/XkCudZtQZMPpejmxT+8gjrUhJGrRwpBM2qanF3jXMIa6t+kJI5cAq3p34Q+PlbIs3MK22bZVtdC5hwQgn3tAg1bZ76u0TQwmTn3mPVVzFjnnqedVnmfPIY0pv5rHqi//THzAP3fvADSdMByghZrjmlKvphiWG2x1q5Fwdd4FtzjBtls2XkoEpjjmmfmkNeIhjTOO5/IoDWBvW4SESluLKbOziWWdea8C6ckoZwwj2dYbkVeGmW/f7AMkNPaGDEMnXpstEyLnuZWh21F1RLDallUWaY/G9RoY4glknUuz/T5LJbVl2ZYFTKGNhawRhpmV104+Al7PJW2qwqMS1BuyK4FQUNuvkDcteoFUMaG4tKThmhSWwoz165wrWGEFr3dkOXFMo4KWVWlqCdgIi0SsL6eqeGEoT1tYWrdAxMmjsLIGaPRId8EzlOnYMy7UzDCMRUPEkqeaKrZERO/+z/M+XEHts+qgwCff2DOt962CtJfh1owcpUFQTPqmZsV1DgPbTunkG1WyOoaDIXOHOC3UIrQtaUatk6pjtF04eAsxtxjm11b3mWsc8/TTmvUCp/Mfx/JXhsRXqxC0tEIWI4ZCE3Nlj6LNcuULK1rWG2x1i6bGq21LbjzWxhgsxXKQ2XnuAHHC6ybfNi25U24asfOidA85VtuRV4eZZsPIQMky9ApZAZkW/Q0YVtReWJYLVMk2/RniCVS6FyNQ57FsvrSDKtCxlCtg7Rg5Y5vgxQcT6XtqgbEWwt2LQgacouF+qlZL4DMeSTGNo7AwaAEJIddRqrbBxjeEnqMo0Kwa0yvPVPTjio10ng4UgaplBg1aoJWtk1hBN28VFiHWgjkqpSSfpSaURU5lbm2mnI7p5BtVtjqWkNnDvDjUIrQtVEWH81/l9Uwc+6xza456ex1TnPNERqHoXZa8z5zMLO+N1YfvAyfu03wHkMByzSVah7Ax4DaEqoZbQuuITZboTxUfo5XeDwzd900Dig5THDesXMifHz5sSIvl7JbCNsAWcQ0dArZaNkWPU1LKNuKWiKH1EK9eApbBIW+Gc0gS2Apz2JZfYmGVbYxVMgaaZhdVXA8lbarCueKDbsWBA25tQT6WXK1sj7JrGA/eAzeqnEHN6Sf4MDRL+Ak02ccFTaLsoZZkT2THRshCnD95hMMHP2W+vN6jZOF6rDgwSWcvpaqvWnSkyuWGbWvK/va+indDAvZZoVjXKgzB+QA02YrdO3SLmgEV/PfzLnHNrtmtGOtc+oF6NnttDyM2mDKl/0Q8eOniLJ/D/asXxCYFxIyJaupqLaEakbLHGuQzVYoD4bMcSkkEg4KhQp5OYWwq+h4Zu7KrbWkUpvW9c07Vlj0Ha/f4CpSbZR/AsOwNlLlbLRHL/voWvT4llCWbVHTvnnvIc8yqWv6yxKyRD4srtgSqNGVZ7WsvhzDqrBdlZQsa+TfFOnLzx3LriownqOXK29XZY1Ln1mVUQv67JTsfkZo1QuXto8+aGpFbdq7UZfuvan/iE9o6ckk4gSMo1QUwDSLCppIHxay+5cXTYdmOpFZu2m078Z9unlgBjnXcKFPD96k2Ks7aHLbGtThcz+KeXSR1kweTu/OWkIrVyyiRVsuUybHMSydrDosooAZLciyyXjSksByabq5+uYY3S9im1GZ11Zk0c2tH1BLczf6yv8eZd3cSh+0NCe3r/zp3kNtG6qgbTaPFWOOOQcEbbbMax+liEults7jdC2CHyvDza7Mda6qdtqHxdpjICJSRNKPAyfRQZYCVo+plGlK9gs2rLae6ub1UaauBdcgmy0zD34Uk6s7x7XPVdDVZW+RbYex9HNgAikNWBOYucuJpoAf+1O9Wt3pa+/L9KCQvS4I50RgnuozuIpUK+LXq782PJsx9E1DeW8PVoW0xYQBtZH75CnysmLhczgZ/1s7F21Zv4FCj1n0lUSOiD9WIGHqQlQogX0FzaiavFI22+dNzjEs3lAb3y3sD1HFJiKii84n9yKvKM9gDH3zKMb5dUvhezUGSZwlrJs0gkVhFqx6DhR+NkavWfRVg0NCyCHEdp4CwySwr4oZVZdXz2b7fODijuL3xb9j6cJgNBrbV9x4iIgIIL7z8dqgQmbkPnh4ncTNVCXqtOqBsZ/OwLA24vKmiSozEvs8vHDyZiqUdVqhx9hPMWNYmzfwJiBH4sWd2LD+BJ50moG5/3sb9oIPBoo8L7j7BzD/p3NoOOlHfD2oSZW+fFFE5L+MuPkQERERERERqVbEj11EREREREREqpWSzYcKWf+GITQkBCEhIQiNuI8cFQA8xYNroQgJCUHIxTu8P4urJIZaMl8Dnr/59T/EC7aPPguvb75Y9k/DYZpan4HXM36v7xrzesa7nNe9/8+f52F+f3k8r3WET8nmQ4raNo2RtHUi3KftQVbjxqglBYAasLJRwv+HZQivaY26z/wBpqGWTAOpwJr4QtExqorwebH20UpS1Xy9xFpj2j8rQqu/uqbWSlPV+L1MqrLGvCyqGu+XWK/Ac+j/f5DnYX5/uTyHdYRB2ccusppN0cGxCUyaOsOtiUXJg1JGMG/UAU6dXNDFoW656rjSGGrJNISKrYkvlBdgfv1P8YLto5WmSvl6ubXGtH/qRbu/uqbWZ6BK8XuZVGWNeYlUKd4vt16Bqvb/v8nzML+/TJ7LOsJAw2pLyA7dgc33XfDF5K6oVbbNKcaNoBDUHTgQLTg9BkEtOKSGHcZB/5M4E6VES5cWqCXRZ8nUtcEap0bg0F+hUDbLx6n1m3EyrRE6OdZHjo410RQPGDbLMphmzzaQX9sDj7WHkdikDxzll+C1dj2Ccu3Rw94SUh0zpAUkAkZVWxnL5MrfIzLiIQXTACpPvYIjXudR0IoQutETR/41h5OzCaIOeGKL/0PUdXVBY7MiJF70hvc1KWrG7sf6feEosHFB2/qEFL7BskWGru2UZVC1kqkXr7AdWLl6N87Gm8O+UwtI7x+H5/oTyGvdBVZJ/jrWXTnfcutSB7G+JfZRtR6UYZYUsAmXwsxZW9QnVr8hYOjUzZf7mIYI3bQWhxOboI+jHJfKrKH2sJTyc9QMRaH8WquFVEZbqsxIHPE+idDIq7iZXRMdWtXXyD0Ag+u7IbSnEmnbP1nm2rJjdY2izmZ34aNhamUbT3Xtqo4NjZnxEzIda/bBEKurKjlcbW/VyYMtiq4I9aecysyRsjVGx6zbFEoDTbGseaqFUL0ay3Xno6BRlhHv/3VC+gEPAWO1lGfsdYL59T8Mqlftrl+Et/c1SGvGYv/6fQgvsIFLGzmu7RFuV7eO9K2PurWvvTyy1wKdNdU4lTH3Ne+G/Pn7ktdYQND8LmOuiZoItW0MQMmsH511uNQ2rkpD2I6VWL37LOLN7dGphRT3j3ti/Yk8tO7SGtJovkldpTO+LnViecZn3ZhW1lwNaH3DqZJifu9BNQespyStr6zLoZ1zv6N/ivWYPjUPJyXF75pBU9ZFUT6XRBuHNqDeK6L1WDIZVsNFwXRz/3RyquVGk3/3pL27vqO+jfvSqhglz5rIOLfEiKiGEzZ7KuJpdb9mNFWtgqXw7zuQ67zLVMwwQy6OKGYbVYUMtVpf6cqOB9OcGf6YonxnUwfzrjRr6x46emw1jWnRgt5ZsJ68DvvS8neaU/sFEVScHEGe41tRo97TaNHytfTLh85Up+kkOnjvBs9geZRpO9W1gmp8yySXQYc+ak5ui66rv101w4d+XnGZClnGYkUmz3L7E+07vbXEPlooYKKMpEKWTbi8AwI5O0j3bvD7nSJg6BQw4BaxraGXi9k50q41TqCtHPKZOpE2JXPEpRyhBb+e0hgLsWtUb31romn/ZJlr+d9LqdFfnh2abTy9KmhXZcfPgD4YYHUlYufhYrKQ7VXz1CzD5gjPxMs36/6dbJgpljlPtRSwQvV6iFLSbxlolBWKNwkaq5nGXqUh9arZ9WSK8BxPrRr1pmmLltPaXz4k5zpNadKhNFIItMuqI+H1kVH7Wusz2yyuu6YuouBr/Lmv+c247PnLzF21rLEckZD5XWhN1BgNJ9D2oTQFO6f5/HVY2zbOZRyij5q70aLr6htThs/PtOJyIRFjTU/g1+xP+wwwPlfOXF2K1t5EaiRlCARUUEEKiR7Tp9bn0coo7FgfC6cRDjCX2mD6rjDsntZG8whtSybLamhTAy5De6ClWWsM/2IWJkz4GENsU/DgEe+Tb9a5WkZEqaDZ83yRMWTlKlgYl6hgWWZI68IotlHVEGsjMx4t2ebMTVfQemhP2Jpao8eEiRg1cgZGd8iHifNUTBnzLqaMcETqgwSoGnfE4E5NUMtlPBbMm4OFXmvxkUkgDt9so22wXPgO03aqYwV9u2F5f6X18c7nH0LhvR0hRRwe+seiyXudYcYyFqMez3K7CB/2G1ZiHxUyUXoiWKFrE9bogEDODuNmG16/B6WzDZ1/3xbIF9says6Rds1CeYfdVrACZpJLWD55HnbEuuHrOd21z2PVqKH1rQXLXKvns32e7ZdV1zY12rDtqsUCBmFD+mCA1RUCedBney1DWhdOhswRLRMvdOzSPRsbYootYs9TLRuyUL0ewgVzZ8OMsnrqlW2sZhuhtezggvWq8ZGMtDE6Du6EJrVcMH7BPMxZ6IW1H5kg8NB5FDHbZdeR4PrIqn2+sVbHLC5jrKk2qNFaz5rFnL8vc41VgRMwvwuuiVppYbd96Mw1dk7PmOuxjQPS+u/g8w8V8N4egiLuIfxjm+C9zmZMC32OJa9mF31ogPG5MubqcjQ2H0aoWasmkPcEOZr7Dy4bT6g2LKUQNH1qwWUiIysdaWptJGQNW8ISedrHaFoyhayGZRZNADCGkRGB35TguSxKLlZq9hRa5plmSLc0AaOqIdZGVjxyKjBnljdkpPHAnEwqBWnZL8sGBQdbgFOWxLXUYCloO+VZQXmYdJ6BT2z8sMk3BP5pdhhlayRsLNax3Jb3X9AsWUPXJsxEJ2d8m6mAoTP3vkC+BGDmiFezQm09rYER6/7Gmj6PsGF0e7gvPMc7T6BGDalvLYRyqQcNEyqzrkuMp2WU2lUrazrmYYjVVQhmfzQPALRqTN8cKTfxgmGX1jTZQsAUq9AzTxno1CtvPgrVUGXrVcAIrWUHF2pLQOuqbs8EDqULiQDMOhJaH4VqXxMds/hjgTVVz5rFnL8vd40VMr8LronMtPDalqcI51RnHdbEBJ1nfAIbv03wDfFHmt0o2BpBcE3XHp/mOiJsfDbcXF2OVlfrde8Jh4cXcC6xPBJFd4/hVs0eZTtxxlqjjbETurkmY/eSDQjPkiPnxk5sDkjmH1VuWhS0Ggq1pGFNLLCBG/NcHgyzZ0/zGjA3K0SWWgWLmPhsFMnlbDPk5eYCRlUDLI/MeGTpNWcyV3QdCEVFBeooKeLxILcnBvY00zZY6rWd6mnDyBYfzeiG0IVLkN31bdQH9BqLdS5V8gNBs2Shrk1YB1bOzHiNCRk6+7kK5EvAGsrMUbJ2rRW2QX9WW30L4X/kLnr/eAARl5eg4dED5f3Ds9S3APpyWYamUfQJOI1wMetaSA/9DKZjLSq0ugrkAZUIi07RsSifC7p2afVv4Povo99wq4VQvRpilBWsVyFjNdsInawypF51eg4qKoK66wrEP8hFz4E9Yc5sV6COhNZHwdrXQMcsHi68pgolizl/X+4aq2zjwjS/C66JOmlhtP1Wd3b9lJysb0hGth9hRrdQLFySja5vq59JE17TNcZXgvrawvOBaa6uAI0HTgFp4y7o2TACG37ZjtNhF3H6uC+O3mqJ/y0Yi+ZmwJO7R7DV0we3JK7oa5ePU7u3ISC+Fnq694FtnZIVRlITTl3b4LHvz/jm+9U4nt4DX347FDX+PYRNG48g2swN/RyLEOy1EUejTdFl4BCMfNsFmX7LMW/+b9h5tQEmfTcGilPb4OlzCxLXvrDLP4Xd2wIQX6sn3Pu0Ru1Hf2Pd1iAU2w/DzI+6IVvr3E/QpvxpWYCycfGvjQh+rEBh0jWcvMDh/SVfoXs9M9RTRWHNDysReJeDde0UXE0yhmO/KZjQPQd+y+dh/m87cbXBJHw3pQd6dWmEW5sW4FfvSDzMSEJcTA7MW3fFsNHD4JDph+Xz5uO3nVfRYNJ3+MSxVvlvLsx4DEPr9r3gmL4byzaH4eGDcERZTMTiz+yR6r8FngevgXPoA2eEYu9WH9xQOaF3OznO7t6Cw7dlcBvYBw2j92Fj8GMoCpNw7eQFcO8vwRyHZBzduhk+Eflo3qM3OjRpAMW93fh9jT+in9SELPU8InLt0cX6Nny2+iAivzl69O4AG50HZCWwaN0ASZEyfDDXHY2kgKSGHPd2/441/tF4UlOG1PMRyLXvAuvbPtjqE4H85j3Qu0NjFN86iE0bjyLatAsGDnkHI9qnY/eyzQh7+ADhURaYuPgzdDQKwdKZa3C9OB+p6RK4fTAFPVuYlTfPzNkcOCQfxdbNmv22QLtejkjfvQybwx7iQXgULCYuxmedW6JDZ3a+hnS3RNSaH7Ay8C4469pIuZoEY6cBmDW+s06ObEyMQA/La23Gxz2QwW+roxFCls7EmuvFyE9Nh8TtAwzp2UIjluZo192hEvVti9KppMqOwqFNG3Ek2gxu7gPRMt2bl8t2cB9oj5LnOAFo9NeuI+pc3YvNR6Nh2mUghrr2RHeHTO26HiPBqW2e8LklgWtfO+Sf2o1tAfGo1Xss5r7XVjd+bfqhJx2voA9qzNo0Q9aJh+i5+BM46yysgEk9lW4eWtRDxqk9uv3p6Q532zolZz7FPb+K50jHzvVx3XtbyRrTG42jVmLmmusozk9FusQNH7zfCDd2eeLgNQ4OfZyB0L3Y6nMDKqfeaCc/i91bDuO2zA3vfDoFvXP489QNlppThlmvX6Gr9C4Oa85Hm4ZwrGS99ndpA1XUGvywMhB3OWvUTrmKJGMnDJg2Hp1TffHzN99j9fF09PjyWwxrWqPienWz1HpXhbIv4q+NwXisKETStZO4wL2PJV91Rz2zeox2HdG1/3AMdeLVkeD6+BZmT+7Jq33t9VmVd0FnLXAf2o+3pn6L0XQK27TmvsYoXrk1th0GvjcOg6xvYdOCX+Ed+RAZSXGIyTFH67c+xpTeOTpropt2QSH74l86bX/VvSmcWPXTEbhzeCs2l63DNryHegFILNC6QRIiZR9grnsjSMFe0580a4bcc/vhWzq+xsW4dXATNpasI2PeGcGIaUcYhSzVnl9T+kJzSWfx3/969Vfc7PlscLi/sj+Gxi9GlKc770np/wD/yZy9YbxJVtfXuF65+yvRf2g8Fkd54jXr+gvmZa6xL7Pt6oP5CdF/i1fX7FkVOJUKqv/aoMr4b+bsTYB7I62ur3G9ciqoVMLPwL3JvMw19mW2XV38xzcfciSGnUdWs/aQ3DyDe7rPvb6WyBPDcD6rGdpLbuLMf2VQZfw3c/bGQEXIjH8A2aj5+LSdzsMe/0Fe43qVJyLsfBaatZfg5pl7/Ees32he5hr7MtuuTv77H7uIiIiIiIiIvFL8x9/5EBEREREREXnVqHjz8VrYaIuR9SAK127eR2YxoMrLRg7z76b5vN62QZFqpCgOIX6nEVVZaZfW/HmJ5MfjzJY/cajSqlEOSeHHEXglhf3dFlXiRa8nzzC/X5V8vUI8vR+MzSv2wdCQcNm34b9hNXz/ff4VI0SVTLrPPDcqz4syxFY/VTNuo+LNx/O10aqyM1HZtVs/KqT9sxKfvDsTqwNuIyEuHAf/+D9MHv4Z9iRV3NDrbxsUeZFo1mv+qWX49mAqatauYMpowZg/LwUVkqP84LF0A85WVjUqj4THPA/cM7Z8MWKsCtcTFbIzsxlfNFYxlZ/fr0q+XiFUabh/YS9WrwmCYSHhkBZ3Afv/3ITzjw06oepUyaRr6Nx49jrURvMLzp6Bl20tLuGZjNs8KlhJn6ONVpUG/yUr8TyFi/KbqzDuoxNov3Q7fv3sA4wa/SFmLViKb4fXQ+GTihP0utsGRV4gWvWqRDw3CBs2TUDLShULf/68LKSw7jwUXZ5BNapKzYTrjzvxpWsFf7T/TFS8nqjS/LFk5RmNrzM3nMrP71clX68QUiu4DOgAw0NiBOsO/eDcqAo32MpSJZOuYXOjKnWoibReL3z6/QdwFCp4vbwC1uISKm/c1kXrS8bApSLs8EH4nzyDKGVLuLSoBSk9BxutA3B55WRM/fMG5DIFTJt2hl3dIp1zLagyZrwnOPbNR9jWeAF2zG6P8qVRhsbt7dFIVhf1auXjzrEd2BsYjHPX82Hj0gZ1ZepxsmyDhXf4hj/tClGlhWHHytXYfTYe5vad0EJ6H8c91+NEXmt0b22sMx5c3oIlWwIRHnYRIeeC4Od/BUqnHrCrzZuYqixc992GHYeCcSs1FTGJxqibFQhPIesuI+46XyrDtAwacB7As2W6oIVaD6lrYpSn4soRL5wvaAUK3QjPI//C3MkZJlEH4LnFHw/rusKlsRnbnNm2PohhYqyZoM8QrEJyuICN2LYIVwwyLgN5OnnmmRyvccCJ/9OoV1c0pzs4fb207nkGTScT3N0nYAGt81Rj/sggZKXURYWs677YtuMQgm+lIjUmEcZ1sxDoybLB2sNSILdc6mUc+OsggsLjEHslHEaDZmO4raziGJTYOv18w5EQF4EbOgZbNSybJjOH8gSc9/HDpcjLuJYigUxeBNSqgaxwYfOseaMkeH0yFX/ekEOmMIVV0xyc2anZVgtkBBg+v/VbgUvQWu9YcdI5Ay/VqOpcg73G8dCxxFookCJoNNaGcsOwa3sKus8ZDXtZXsXtUQZC/jqAvB79Uey3ET43ODR3bYW6Mtbck7Gt0ExzLh8hky5rvIyzDZwbrZSXsHJyeR027WyHWqm6uWWvudptFieH4dDOy0AnB3CRlVnLHIDLhlm2dTG8PiE31FxfGeO2AGWKOWU87ZoxhdZF5ROXtJGGNuhNK6KVz89Gm+NFIxqOI+98Yps+F0dUzoxXHEpftzUllwURavsqg8KAadR6xFZK49Jo99imNNjjEXFCtkGG4Y8v7CTiKOPQR9TcbRGpBYEZ5PPzCrpcyBpPGKX6bCOftBLD4f8cye6jgzxjMBFxKeT35Via659ACkUSeU9sQa1mn6YiTsC6KxA7PrqxNOw8pi1TzjIxhtPjKF+a3cGcus7aSnuOHqPVY1pQi3cW0Hqvw+S7/B1q3n4BRRQLmDMP3qMbPBOjf/j2CgzBRMSMy0VKNsi4TIaZHH8J1KpXft0zDZpCFlCN+WOQaZSIiDhK8fuSxs71pwSFgpK8J1KLVvqtvKzcchkB9MWwmeSbpCRF3GYaYWVLs08XGRgDAVunVjd1bZrsHOZQ4KwuNH5PGnGFYTTf1ZK6z95BF25d0WuePVVElOM1ghqO86Z8RltH9001fH4bZAUm7Xwx4qR7ikA9sOyfz92oGshe4/g91LHELqawVAMMwiVwCWuofxO11dSQ9kh5l5b2sKHe03+iP9b+TBNc61KLyYcoLZ8VT4YVmmnO1VkIBEy67PHyT6/M3HjEadQhVcHsyqXRNa/J1NZqIh0ufJa1rJLWYqLK1WdkvoHmeqLKG7d1KduXKaN2YH2sE0Y4mENqMx27wnZjmpYm8cXbaPnmSf1mPPX3z+v7O2GTjtOxYWE/ZJwKgFralwWFgG2QZfjjCzsBKeq/8zk+VHhje0gRuIf+iG3yHjobs8ajhNV70/BeQyDhwGeYE+oOz3Xvw4a3E+bueWFFuCumDm0GmawROrk0K3mbmG3dFYodH51Yygw5j23LbHmPZWLchCuth6KnrSmse0zAxFEjMWN0B+SbOGPqlDF4d8oIOKY+QIJKwJx5+CbaaJkYv0eroL/0G4IBgbgYaFwGO886JseFb2udolX3TINmGwH7KA9DTKNQ59hrRThcpw5FM5kMjTq5oFnJ9Vg2WHZNFCLWazmCbMdjuI0RZM37oXepoMmgGLBtnVpI+VZjgRzmxSL00hM0bFIbUjNXdHWtAaMWvdHDuYNe86y27Jjf1kK802+G4fPbECMvH0acdE5h1kN1GVXfZq5x2l1km7eVNQwwCDOouL0SJDXRceJ3+L85P2LH9lmoE+CDcypWPI10rNBMcy5/IeCEzMvs8WqfzlVqbmjnvApmV2lDuA7voZa6AVVbywxdSypTn55nYG5I2zo8w9yCxjMfXGYGstLToBYDytBQR5OopswUKWQsNMTWKXAu0zwphIkTurvVQeKNG2qZkRYcOA5QFSYgyHMjwhsMwfAS3aCQbVDI8KeDSWfM+MQGfpt8EeKfBrtRtjASGA8AKO96YuaCB5i4dRkG1uVfDFA+jEOiSqph1KwAPW1pohPLx5kGnMe2ZeYkCZsYNc2hUqOyaAIyKaSknXv1axrmTC0TowGGYL1oGEohYFyGcJ51TI48yuueZdA08IuADDWNKh8iLlFVwYOYGjBrwg1xMfFQ6qhGDY0B29apgyE5rOuMkWMbI+JgEBKSw3A51Q0fDG8JI824smqWP/955s5KzW9Dx6OJQJy0YNZDdRlV2THQRiAntdTXKkPQIKxNxe3pYtLKFk2NAGLGs6aOFZppzuUvBILmZeHxapxc6blRTtXMrlKt+6MQBqxlhq4lz1Sf5acz29bhGeaW5ubD2KkbXJN3Y8mGcGTJc3Bj52YEJLMafUYbrVQCCaeAQpWHnEI75rks86Qq8ybORT7mXw2AJUbNn4dOV/7Aj/6aT7MXINp/L84kFiLM4yecth6HD93MkfekCERyKGwdmbZBYcMfHyPYfjQD3UIXYkl2V7xdX08sCsLx27RVUM31wg/dLMAlXsN1Xkxldu3Q8t4hbDmbCpUqFw8TS36TkLKtu4Jt8dCJZXgrA85j2zKzOugzMfInJxuWOVNbUmuAIRh64iJceVoI55k3Ds16fcKVj5Np0EwWsI9qXlCP1ZSvtJTZoV3Lezi05SxSVSrkPkws+e1LwAbLrInLcHCxQ0aQN86qVaNQKOSQFxsYAwFbp47B1qAcymBlPxhj3qqBOzek+OTAUXzhVPqJsH7zrFQiAadQQJWXgyecZlvySs3vyoynFOE4acCsh2oyqgrEoFBrUEI5MXDCaGFIe7oUXL+JJwNHo8cNVjwf4yjPCs005/IXAiHzsr7xlp9c6bmhKqvDQrTpz85tpc2ulV7LnsFa/Az1yW5bD88wt6D5wKmkphO6tnkM35+/wferjyO9x5f4dpgN8qOek432rZbICV6HrUHFsO8/BCMHO/LOnYxG15bxzHi9YXT4fxi9tgBfTe7O7zuMGnXHyH6m+OePRfjT9wKuXL2KK1fvAZ0/xAj7Gqghv4fdv6+Bf/QT1JSl4nxELhzf/T9MdLitYxts088NdHyltrW1nTsG2tfV+W1YYtEaDZIiIftgLtwbSQXMpe8haelIfB7hhHG9ZYi5cgkB2wOQ3f8ddNEwGErrucDZIgSrv1qILZdy0bh2Mq7AHbOH26Mhy7rbtT+GD3XSa4oEVMi7wLcMDsHQfvw+8s+ToKZTV7R5zLNl2rVHL0ddO619qj+2eB7ENc4BajHoVvjcUMGpdzvIz+7GlsO3IXMbiD4No7GPb86c44Dko9omxoaO3fUbggEAJkwbcYt6KTi1x1e/cRkGmhxtLCAxIjz8W12vdh3r4Orezeq6H/Q2Rg9pp2PQtKnJsoA6wL7WVezfrJ4/A3p3QK/+DCslzzQKaT24OFsgZPVXWLjlEnIb10byFcB99nDYN2TYYB374dMJ3Xm5nYLOvbqg0a1NWPCrNyIfZiApLgY55q3R7a2WSD9QQQwEbJ1aBltVDm7zbJrMHDoU4+SvM7B4bwiuXD6Hk0f9cOFxfXRuV4ATm0vXE4Z5dkpf2Jo+xN/rtiKosAlsMk5j76HStpqggcLw+d2621tomX5A/3igQrbGeuc+sCXSvXkmZ/6a8DKNqjY1Yc5Y49q5D4S9hmbYvB0jJ00e4ehWhtFYyyAMQJWNqEObsPFINMzc3DG6ZXqF7UEqg+xpFPx8ziAm8Q5C/m2Bz3+aBIf6Cp25l2vfHaa+87BO0wrtPlTXwPyJI7SWKqkl2guYgCs0jUMKy/adDZ4bue3cMbhtLk6t24qgYnsMm/ExemTwc2ug2bXgCvZuToTbl++inayya9lbaJkTXClrceXq0w2SaAPM9XgW47Yu4terv1JwiF3eD8MSfsItjwH/GZuhaM6sGlzscvQbloCfbnlgwOsYP+U97FkVgrYTBqB27hM8zctCrM9hJP9vLea2ZT0c86bzZlhN30jSN2NYj6v48vZmDHnDE6tnXyLyMlByHFTE+rjrNUY0Z1YNJQdORRV+Hv+qUnx+HZb6XkVMEgdL6yZoZFGILKueGFi5L015o3gTrKZvEqqUC9izPxxpWU9g2ssdnd/wjQfEzcerhSrlCi5kN0N7yS2ExBXwX349Ec2ZVUOVgisXstGsvQS3QuL4r74WmPb/Gbu+bIRQj/n47LP5WHdWgsFzJsDFhH+kCPDmWE3fJEiRjZiT6/Gbb1PMX/0e6vMPeAMRP3YRERERERERqVbEdz5EREREREREqhWdzYcqJwoB25bhh4UbcDqhgj8VKqXgIf7ZsQx/RRh4/HOh6la9l8JLiVX1UCWzZCnP2yr6rDba17W+RERERF4DtDcfXCw2zfZAwdjPMcriOBZvuKT1MhsVsh5cwcG1y+EfU33L9POw6lU/LydW1UKVzJKlPB+raNVttK9rfYmIiIi8HmityKqkAPjerAFri1ro+v1JhKx4S/NlAaSo5zgEXav5yfXnYdWrfl5OrKqFKpklS3kOVtHnYqN9XetLRERE5PWg7EvGuMTT2LJuJ/zCk6BU5gI2nWFXj2GelbCspyrc9P4T0e0+Rqvbm7H1RCoadWyHhsZsiyEfHQOhcaoBZj2eVQ8G2Baftz2WaTGs4BwoqxQr3dhXl3FWwCAqaJY0xN7KiBW0raJaMMyJKs1+br2A2AtL8fU6IRstP35OMLm7j22WtK+Dp1r1Zch4REREREQMQtMyp7ixmDo7f0OhxSRonmVaT5X5tGtUHeo8cyPt9fOlxe5NqP+aeFIKGAI10TUQLqLgq4aY9TStegbYFl+APVbXYljxOURViBUr9tVknGUaRAXNkoYYFwVipWWB1YRhTkxI1zGdBsZuE7DRCsVPKP+a9WXIeEREREREDEX4XWWmKbOAaT1tYwRAYoTmb03GhHdGYfyA5ngc9xBchYZAloHQBjXaVN6sV5Ft8UXYY3UsnAaZY581Vi/TOMs2iKqEzJKGGBcNiK82DHNijqWO6fTtBuUlrWWjFYhfGyOB/GtiyHhERERERAxGz+aDZcrszLSe8uW3MiMjqJScgMVQEyEDYeXNehXZFl+EPVbHwmmQOVabysSKFfvqMc4KxFfILGmIcdGA+GojYE7k9ZNPeQzY8ePXLhNDxiMiIiIiYjDaSzYRSKXSY60NY1pPk1XEv9cDBlkhhQ2EjMvpoWLb4ouwx+pYOA0yxz5rrF6mcVYgvso2bLOkIfZWA+KrhR5zolY8hWy0AvFLhkD+NdE3HlUmbp6LrMJf+IiIiIi8eZRvPp7cQ5DvBcQnXsSRo2F4WFQf76/ahsnkhTH2TeEy9RwcRr6FRhP+wJYPirBuSCvYDlyBwoGjYPOvP/65V4CYC4G4FR2JwIgEpN86gwiLPhgg2YupI2didZQMVhnn4H32sVYH6r+/CtsmE7zG2KOpy1SccxgJ14RAhMTkIfrcCdz+9wpORCQg/dZpXNT43hFV9m38fSke2VFnERxbhLb9BkCydypGzlyNKJkVMs55Q7Mpo9Yzserntgie2Akdx/6OG6hVMvg6cB8/BHcXDsCwT3chpa4NZIn/4J8HtRjj71N+QaigTPXDT5/+gPU7TyLdeQ4+dW9S4TlP7jxrrKSM2I9Bu0Zj8ce2cXjw6yR8+fPv+O24FRatmYzaMSdw/l4h/j1/DDfjbsH/fAye/nseAbfu49qxC4jNvYvzp2ORDwCF1+GzfA02/PkLDprPx5pPauOu33nEFNzCif2RSFPJ2PFNbYkZ6/5Er6tfoO+gyZi/6yaUpim4HJSNsX9sw7gHv2LSlz/j99+Ow2rRGky20dzrsuqrF7Jv/41L8dmIOhuMWPV+So2sLfoNkGDv1JGYuToKMqsMnDvgj3P+mv0EUKM9erpcx6pP1iA04RYCQu4jJ+oszsYVseMnY+f/3I3rGvVlKjgeVdIRLJryPXzui7sPEREREUN5Q79e/b9pj30WROOsiIiIiEh1I/BJ+X+f/6Q99lkQjbMiIiIiItXMG7n5+E/aY58F0TgrIiIiIvISeEM/dhERERERERF5WbyR73yIiIiIiIiIvDzKNh/Fj2/hYkgIQkJCEBIagfs5z+d5CFVWCDYtPYA7VXyo4HkYU59XX0ReNipkhWzC0gN3/pvPquTH48yWP3GoKsX+X+d5249fGwysfVUWQjYtxYGXtdi9wvl5HveS54kq61+Eheree58+uIbQkBCEhFzEndQX8dd0BtbSC6Js82Fcvwlq/LMAQ4YvxiXzFrCuVYU3RVTZyCxTmEsgkWp8wdWzUBVj6vPuS7WhQnZmtta3tBrGs573miGRQGrwN8a9TqiQHOUHj6UbcLbSxf6m8Hzsx68tBta+RFLBlypqrY3Pk1c4P1W5l+DFxExa2waNk7Ziovs07MlqjMYl994aVjZQ+v+AZeE1YV2X8c3LzwMDa+lFULbDkJrWQzuX1qjToB06O1rB/JnHqkKa/xKsVGtFIa3XC5/OH4d2uo40w3lmY+oL6Es1oUrzx5KVZ1DZL/B+1vNeL6So1+tTzB/XDq9BKiuJFNadh6JL5Yv9DeI52I9fWwysfWk99Pp0PsYJLnbaa+Pz5RXOzzPfS/DiYiariaYdHNHEpCmc3ZrAoqRvRuaN0MGpE1y6OKCuCf+k54GBtfSCKLPaAoDyXz+s+9sE7342DLY6vTHAGgsV0i+sxOSpf+KGXAaFaVM4m92Fz55wGHVyhJWUYbC1UCAl4hD+ClWiWf4prN98EmmNOsGxoTEEjamFunZTna48S1/02nQZBlaBDaPh5tkUZnv1cy5g5eSp+POGHDKFKZp2boxkf0bsuVSEHT4I/5NnEKVsCSfz6/hD6zw71Eq9hAO7fRB4+iqy67eDfUNTACpkRh6B98lQRF69ieyazmhVn71QMMfCNLzK9eRRG1VaGHasXI3dZ+Nhbt8JLaT3cdxzPU7ktUb31lLdOlOlIMJ3By7kWiDmwHbcqOOCOrG+2BNeaqtl9QcC1mF+b4qQeNEb3tekqBm7H+v3haPAxgVt6xNSInyx40IuLGIOYPuNOujjbAVlMi+e9Z8gbMdKrN59FvHm9ujUQor7xz2x/kQeWndpDeMH/HqXAAVxCN6zHXuOhSLJoi2cmlhAAoBLvYwDfx1EUHgcYq+Ew2jQbAy3lem22dAUch3rsDOs5LrXpcxIHPE+idDIq7iZXRMdWtXnB0CNjvHZFA4WsdjnsRaHE5ugj6Mcl7zWYn1QLux72MOyQntz6XVZOWDnS54SgUN/hULZLB+n1m/GybRG6OTYELoVBIB49mPW/AKgeubxV9F4XXZd7fGb18/AiY3smJqnX8ERr/MoaEUI3eiJI/+aw8nZBFEHPLHF/yHqurqgsZm6XktrXykUs6JEXPTeg3CjTnC0Am++O6LWnT801kYrNM05g52atd4iQ2eNVQm1xR8zGPkRmKMG5acoERe9vXFNWhOx+9djX3gBbFzaor6xnDFH6zHbYd5L/tcJ6Qc8sPZwIpr0cYT8khfWrg9Crn0P2FtKdQzY5tc1Y9YUne1qIZXRlkFj4kHZodix+T5cvpiMrrXKC6n4RhBC6g7EwBacwesrIEfqlSPwOl+AVhSKjZ5H8K+5E5xNonDAcwv8H9aFq0tjmJWsfaW1BH6/myoNMqMDYK5RFaJpmSv0m0I2rT+nM0WaPy15rSJrbBk55DWiIY1Ta0Xp2vZJ1Nb6YzpWyDLYLqaw1Ju0f7oT1XKbTL977qVd3/Wlxn1XUYxSyJjKsJvy9a9lVKYv+my6AgZWBmxzKts8m3RTqD2iHK8R1HCcN+ULxV4ZT7tmTKF1UfnEJW2koQ1604popdZ5XJI3TR35PV3I4agoejONsu9LSyMLiXJ8aOrETZTMcZRyZAH9eoqRcKGxKNmG1/AkoTzyr0pExFHGoY+oudsiuq4gIsogn59X0OVC1lgTKP3WQfrU1YLaT15Nq3+cTT/tO61hq2X3Rz1MvnWY3w8iLjmCPMe3oka9p9Gi5Wvplw+dqU7TSXTw3g06+KkrWbSfTKtX/0izfwkUjCeXcYg+au5Gi9SDoQyfn2nF5UJGjS2miKL7tOOr+XTkkYIKo9fSYGs3WhyhIC4jgL4YNpN8k5SkiNtMI6xsafbpInab4Um6Nt/kGMZ1M8hn6kTalMwRl3KEFvx6ij98NULGZ+IofnU/ajb1OBUSkSL8e+rgOo8uFxs+H3RzIJCv/Ey6uX86OdVyo8m/e9LeXd9R38Z9aRW7gLTtxxxrfkVSIeVUbfxVMF6Xwho/M6aFWRTlO5s6mHelWVv30NFjq2lMixb0zoL15HXYl5a/05zaL4igYk1TMycUMzmlXttOk9paq+PDnO/layOXeYtX60d119iEdIG2DMiP4Bw1JD8cJUd40vhWjaj3tEW0fO0v9KFzHWo66RClpPP7fVygHaF7CREXv5r6NZtK6hSH0/cdXGne5WKBtU/jflKlMemijPmdetQcQOuTtO9lOTvn0nf/FBOXafj6ymVFke/sDmTedRZt3XOUjq0eQy1avEML1nvRYd/l9E7z9rQgQsGzfvP7/TdlGWJGV+i5z1SAzu+BQlRkjWUitYLr0K5oLgXYBltrKGu4YGiPljBrPRxfzJqACR8PgW3KAzwqFjCmsuym2vpXNhX2RY9N12ADK9ucKmSevWon0B7vqqzYy6N2YH2sE0Y4mENqMx27wnZjWhvN9xKVuLPtD4Q0H4wudaQwtf8Yc9wT4eEZjCIjM0guLcfkeTsQ6/Y15nRn7VLZY2lDbMPrpqt27DzyBwMAkKL+O5/jQ4U3tocUgXvoj9gm76GzGWusObB0HoaetiZoNWgG5v7sgUUf9iu31eoxzupYhxnDlDbuiMGdmqCWy3gsmDcHC73W4iOTQBy+2QbDetrCpNUgzJj7MzwWDhKMp7z+O/j8QwW8t4egiHsI/9gmeK+zMaPGrFF4cz+8IvORdWY/fMLNMHDaIFjLnyLWazmCbMdjuI0RZM37obdaD8xuc9NVHevw4CxvxnXlMJNcwvLJ87Aj1g1fz+nOHz4AfcZnteW37PcwY5n65wbPB4b52UggX2fM4TK0B1qatcbwL2ZhwoSPMcQ2BQ/YBaSF8g5rfnkiuMioiuMXMB5XZfymAjGV1oXT0J6wNbVGjwkTMWrkDIzukA8T56mYMuZdTBnhiNQHCVBpmpql9QRipoKV61B0VS92QAXzXVrPmVfr7+iusTmWAm1VnB/hOaowID9SNO44GJ2a1ILL+AWYN2chvNZ+BJPAQ7hgzuv3/Bbsdv6+LXAvKYl/eTKgTrHA2qe1vFZlTAykRpAyXFwqFSCVANJ6AvdJRvildZ0wtKctTK17YMLEURg5YzQ65JvAeeoUjHl3CkY4puJBgpJn/ebPlZ6o62SAGV0psEZ5Blf40b8Bm49iZGXmsa2mhiApNdQKGWzV5tEyjI1gRCqohIypQnZTQ6iwLwI2XYMNrGxzqrB5VqA9HqzYc5kZyEpPQ5q6ITTUUbRySH6cioJyFSuaNmuMwtyn4GqOwLq/16DPow0Y3d4dC8+lapxXCnsseQphwyszj+U/0cakM2Z8YgO/Tb4I8U+D3ShbGAmMFVCbayUa6toyW60e46yOdThVsDdlXl+YOKBc7CtRP7QH6I8nTNB5xiew8dsE3xB/pNmNgq0Ru8Y6y7OQxTVGjwmTMGnSTHz7y6+Y3q0G4mLiodQpdj1t8my+XDbrutYYse5vrOnzCBtGt4f7wnMl19HmRRifS9HJweMkwXxBw8IMGMPISNu8LASXLDS/ar5646+gBsvnkBRGGh2SSaWgkvmkaasWjpnGtQyY79q1LrDGCrZVAYJztIZB+SmjbIo6wBbqb2XW6rdQO7n3Be4lQgisfVrLq0BblR1TCUY1a6Em8vAkR/NmxiH7CaG2pTorlVpfy+51JRubslNlkErVAln1YaU5Zc8VzVpjm9H1rFGlxwqgvfkgVbnVtgR5tDcORxaxraYa1thypJBIOCgUKuTlPAFXZkcVNtjqbPcAQObANqbqsZvqUvm+sLpiuIGVbU7VZ55ltgdAKpGAUyigykvD6fW6sVe27gzX5N1YsiEcWfIc3Ni5GQHJKo3zCtGmfy/QhUCom1UiJZVDv+F9USPLH0fu9saPByJweUlDHD1g+FiSjfUYXoUGw8QIth/NQLfQhViS3RVv14ewPVdHXYtyW60e46yOdTiE/dspQCgqKlBfTxGPB7k9MbCnGc8KbIpO7gLxBGBk+xFmdAvFwiXZ6Pp2fcEaC2/WBU5xHpi76h+kFMvxOHg9toUUw8HFDhlB3jirLnYoFHLIi/W3qRkSEwfWdRPhf+Quev94ABGXl6Dh0QPlJ2ggaHyGFDXMzVCYlYkCcEiNiUd2kRxyg+cDw/wc4SyYr0oWUBmmnYTmV1bVxl8F43UpOuMPUbJjWnqCTp2z0KxLPceXXos53/lro8Y1BddYPW3pQ3COFhqUHwAAFaFIrd6GIv4BcnsORE8zaMdCqJ1+rux7CQBpDXOYFWZBneIYxGcXQS4XWPtUGjErbIP+rLYExqTKvIlzkdpSVS3qdUdPh4e4cC6x/KZddBfHbtVEj9K3aSoZfoNKqSx+QnNF990YbfSvUfooe+C06OFF7N+6GQdD7iIxKQ5Xz/yNAN+t+Hl5LHovmoxuRvew+/c18I9+gpqyVJyPyEU794Gwr8t/88QI9PBvrNsahGK7jqhzdS82H42GaZeBGDPybThk+mH5vPn4bedVNJj0HT5p8ghHt3rC55YErn3tkH9qN7YFxKNW77GY+15b3Nq0AL96R+JhRhLiYnJg3qYfetJx/L7GH9FPakKWeh4Rue3gPtAeOl2pZF/GSE5hm6cPbklc0dcuH6d2b0NAfC30dB+MYUOckOm3HPPm/4adVxtg0nefoI3Gg0FqJKjp1BVtHvvi52++x+rj6ejx5bcYZtcevRzTsXvZZoQ9fIDwKAtMXPwZ2iQfxVZme33QuvYj/L1uK4KKHTCsK4djy7Vj7zhyDiZ1SYHvz9/g+9XHkd7jS3w7rClq0MOS8+wxbMbH6JGxG8s2h+Hhg3BEWUzE4s/cUPvpBSyduQbXi/ORmi6B2wdT0LOF+sGhCsfS1BLtejkiffcybA57iAfhUbCYuBiftUlm57GnO9xt6/CurUZi0RoNkiIh+2Au3BtJAUhQQ86vsydo1iwX5/b7IiK/OXr07oDGxbdwcNNGHI02RZeBQ/DOiPa6/XGrjacXlmLmmusozk9FusQNH0zpC51hgpB98S9sDH4MRWESrp28AO79JZjjkIyjWzfDJyIfzXv0RgcbC1i06wXHdN14WkoASCzQukESImUfYK57I0gBmLfrrlNjn7h1RQ+HTPgtn4f5v+3E1QaT8N0nTmjWoTMa3dqEBb96I/JhBpLiYpBj3hpvfTwFvXN4bc5qjaQjW7HZJwL5zXugdwcbWFi0Q3f+dSc3w7VlM7HmejHyU9MhcfsAQ3q24AcA0noucLYIweqvFmLLpVw0rp2MK3DH7OG2MK+nQtSaH7Ay8C4469pIuZoEY8d++HRCdwPmgwp5OjkYgiHujPpxkyD6yFZ4+tyCxLUv7PJPYfe2AMTX6gn3Praoo/XXCSpkRx3Cpo1HEG3mhgGDRuGdDrrzy632U1xYWpXx26OhKgprfliJwLscrGun4GqSMRy79sfwoYasB6zx94WdDSumTmgUdRCeB6+Bc+gDZ4Ri71Yf3FA5oXc7Oc7u3oLDt2Xo2Lk+rntvK6n99lCe+4sRs+5wswzHvi1HEW3aBQM6JmPjZ/z5blG2NhY2sUHG6b04VFrrTRpAcW83b41tjhZ557D3EL8tA/LTuwN69WfkvKMRQgzIDygbF//aiODHChQmXcPJCxzeX/IVukrv4rDWHG0IR9ba1LklOnRupHsvad0V/V3aQBW1Bj+sDMRdzhq1U64iydgJA6aNR+dU/tpXo/x+Yj8MMz7ugQx+W8wxNcOjff/D6LUF+GqywMcw0sbo0rMhIjb8gu2nw3Dx9HH4Hr2Flv9bgLHNzYAnd3HE0PX16T34bfHEwWscHPo4A6F7sdXnBlROvdFOfha7txzGbZkbBrgUI3h7yTo6oCOSN36m1e9e9W9gi+dBXOMcoL7MVvjcUMGpdzvIz+7GlsO3IXMbiKGj3kEHoXVRD+LXq4u84XC4v7I/hsYvRpSn+xttOFbzphuf3/Txv4Jw97Gy/1DEL46Cp6je/s+g816BiMibBqdSQcUxP7d7I3nTjc9v+vhfPTioVCqIU/S/hbj5EHmjkSeG4XxWM7SX3MSZe6LX9003Pr/p43/1kCMx7DyymrWH5OYZiFP0v4P4sYuIiIiIiIhItSK+8yEiIiIiIiJSrbywzcerZg58NvIRf2YL/jwUrfPFX68vhpkMX7QB+L9RH2pedKxeJi8vTwVIvBGqNn2GhCL04mVE3opFan41P4vxHzEMv7w8snnV+vO8eHHjeor7wZuxYt9Nveu2IAX3EeIXjCjWF3Jq1bhh94fnwYvZfLyC5sBnQZUcBT+Ppdhw9nGFX5jyWmGQybBiA7AqOxPPlKaq1scrR8Wxei15qXkyQ0MbY5z6ehDe//UkYh4l4O75nfh6kDO6TFiN0MxnKbzK8h8xDL/UPDJ41frzvHiB41Kl3ceFvauxJujBM20K8oOX4ev9ybCow7/lM2rcoPtD1eH35PnwKpoDnwGpdWcM7dK07Kum/xsYZjKs0ACsSoP/kpV4pjRVqT5ePSqM1evKS82TFGYNneHSygKWLm9jwrhxmPT5L9gTvA/vp/yGd6d4If45L/C6/EcMwy81jwxetf48L17guKRWLhjQockz3rCViFMMhMfWSbDV6Ru/xg27PzwPyq22r5k5UBe2nbSN/Br2CJo5GWZbCwnApeLygb9wMCgccbFXEG40CLOH20ImYCPlw7Qa6pxrjFSduFrxL8W7ljkaZZyAB9O0aY70SpsMLZEmYEosSrwI71IDMHhmUsdauPPHZEz98wbkMgVMrZoi58xODetsF7TICMCOvYEIPncd+TYuaKPW8OrWx+zhsJUZakVk57htfbXZkXUNpv1Vc1ap0vRYaa2QxLcJ6xh2u6BNcXh5rKTsfvDtplU37DLmoLG+sVTGsFu5PLFiXDOB3xYZbFIuR4E7h//E2dofYtbgEt+KcWN0bPIQW345BNXwGRhgI2XPYRY8C7RLi1qQ5rEN2UKG4bw7xxh1zaOKa2n9J/qsz3XY461UHtmGWVYeteaKznpUamw10PAr2B/WOsyuF93jJIblBAAgR8J5H/hdisTlaymQyOQoUj1FzJHNAvenfAMM213gbCVhj4thX1cZEGOAFQ8gN2wXtqd0x5zR9gIbAw6pYYdx0P8kzkQp0dKlBdRC9TCcjbyL6xe011Z2jSu1TLdSVsxQC3UtwKyhSqH2y71u5kBtOx7psZMeSlOwLZLFLLPtYooozqCAL4bRTN8kUiriaPMIK7KdfZqKlGwbqS58O+ApIsa5i4Kv6VhTdWFcS8C0WfgMJsN8IVOiXNsArGvmJKIcLxrRcBx553OUybPO/nJ0H01rPYK2pnGUtnssNR3sQY84PfVhoBVROMcc+xos+2uargFZyEpriGH3l+O3tWLF7EdkITuGPITGp2vYFZqDwmNh1jrTsFtcuTwxYuwfvl23rQyWWbUi8snnw/rk8E0oFWv+OGMLDTWtQaN25bHHxZqWTAv0U1176yNO0DBMhQGMuuY39JzWUgHrM3O8lcqjwJqan6mTR925wliPDDb8Cs9/5pgY9cI8Ls+QnKjJCZxFXcbvoTSukMLmu5Jl99m0IzRZ8P5k0PwPTBEYF8O+npBuQIwF4qHgKGFNf2ry8THSXRmJiJQUv2sGTVkXRflcEm0c2oB6r4hmz9nIQsEa1zbdCsUsiV1D7I4JUvKrx+tmDtR9r1/ITnrofBHbIsk021qjMMoLy4NsMX64DYxkzdGvt536N6F7LBtpqUxHE74dsDvzXJsarXkmybf5F2JeS8i0+SwmQ0FTokrTAMw2c5YjRT2edXbhO/0wfcNC9Ms4hQC1mhZZCiFLseFWROEcP2Vfg2F/fbuh7m/bUqaV1swgw+7C4Y4asRIei0JvDEv6ITA+HcOu0BwMLhIYSyUMu4VRlcuTToy/R6ugv3Taksv1m1Urg0qhgBKmMDMj5rhY01LJtEDX0LW3ZikEDMMATDrq1rXOoyfPYS0NlgtYnwXWrMrkUWhNPWMO5wrnCmM9MtTwywnNf/aYdOtFxj6OMyQnAKBEbOglPGnYBLWlZnDt6ooaRi3Qu1tjgfuTYYbthYOfCIyLYV/PsTQgxgLxYNS0Fsoo7FgfC6cRDjCX2mD6rjDsntaSPWc9/8ZtgRrXNt0KxMwti11DjPuyPvgjf03Mgfo+7C0bQJmdlA3bOuqWFoN4pYbJr+RfbGtoLa0rqtG1Awqdq22SZKF7Lb1U2mSox5Soca2KzZw866yqEAlBntgY3gBDhrvCEgQStBQ/ixWRn2M91+DZX9mwrLSGG3bLYyXcjxoVxlAT/vgMnINPOYGxsGudadh1S6t8nrRizG6rm3XFZlVDyb14GbdNu6BvN2N2W4xpybZAKxn2VqWAYVigrsub0KUsjZVcS59yAtZndmwrlUd9bVY4VxjrkaGGXz3znzUm3Xp5zD7OwtCcyOA8ciwaRxxEUEIywi6nwu2D4Wip8wxEOQbNf8Fx6TED642xQDwYNa0Fl4mMrHSkqQscsoYtYYkcgTmbi/tCNa51fxCIGfTUUCXQDsFrYw4U8uWx7KTmAhZJtnX0cnMX2GUEwftsJtTDUEAuLxawhubzO8C0AwqfKzRRStG9lqBpswTDvjJOo109x5dLMflmTjkglUDCKaBQ5SHnCafVsDzMAz+dtsa4D91gnvcERUSQK2zhyKyPyloRWTmuo/cahsRE10pbGcNu6Y+Ex1LIiiET1vh4hl2hOVgyL3THwq51pmH3cnOBeSw8Nu0Ys9sKSWSYVVWZuHkuUu9fBpBKO9aqtL+x+OcgNP9qCSY3N2O3xZiWxk7ddC3QDy/9f3vnHldVmfXxn4AC4gUxL4hyUQEFxQuoKCagvOmkjShN42BSaObQlOPrm+MlTOtt0KE085KYZuUNVDDkok2moyOmgOnAoKOiBsfkIooIggJns+YPQM45+9nnHDRIaH3/Oh/OvjzrWevZ++Hsy1dgb62Gk5vIMKxQ1w8eip8+eJJj6ThLBeuzuG8blUe9+xSWtgaC45Gxhl8lS7lCTPJ6SRMu94/jxufErLsrnpvmC8uLGTB5NQbxb7nDTPH8ZOT4V4pL0QxsqI8V+kNQ01q0dccoj3zsXLkRacVVKMn4CluSixXGrB88hBbt+o011Kiwz/TVUEUOTh89j0I9Y7qehhtOW5I50NNa8KuK2E66wNsGFkIz50hMnDxJZh0NHe2DET3+jahlH2Dv2Vzcvnkd2SXt0c/3VYSMKdWxkbpBLrIsk5s0J0ySGUcXBRKObNO2pupuSritMc6wEZk23bsga9+WxpkMR3XHv/dvlZsSvT3RLW0PNsdfgvmI8fDJ3ywzczpYEXL/vh5bv30Au163cXR37CPrrN0z1bi8czXWJV7CvQ5mKDyRjlK36Vg4cwAuCOrj+akvKNtitVDOcQeRcVZkf5Vtsw6ZldY4w24vy7vI3BdV11cBmPbCFHk7/jQMpilyu+njG3YVxmD9uJDF0gjDbuho+IwQj2NhngR93M1Nvq+QPuexSsek7G16AH8M/AQVk2fCW3bzaTmu/3M3tn4Wj3MFlagouoLU7w7g8y9OosOsDdiywBud2yjE5dZRNpbadHDHyP552hboyf0Bmb3VDdMXzsSAC3LD8ChfRxTF6NT1wAkIcO2i/V/ckx5L6/Iotz4rxNuoPPoiLHSsfJ/DgIsHDIwV4fFoAAZ6DzBs+DWxxhCF88Pzgc/LYhLVy4RJfrLlXh3WDld0jzWinKAGdw5/gLkrdiPlhzM4/k08Ek7moetIH/Tv2lV4fvIfXo2ESAPjv2MXcVwi+/q9PuhTehzRcXr6WCHHIba5iIvajK8vWcBz/Fi42LTTXqlNB7iP7I+8uPfx9tK1SCoajT8veh79hgiOi3/ygqOCRdvLWeP8EDAWXc78TdBnAZgyyV1eQ57WqDryF/jNeB8Xes/Ci0OstNuoQ8Pr1Vu8OZDtpK2f1p7j1h7fr4QWfyxtjahxeddHSHEJxvhOpbh3vwzFV/fjQP4fsfF/XXQXZoDH7rOq9DWIVM1GeFAX3a+00JgctnxzINtJWz+tPcetPb5fBy3/WNrqqDyB9RFxOJd9E5K1Lex6WOFBcXeMCXDUXZKp5zH6TFKlIPaqF0ID9U880HDZpQo3zhzEiUtlqDSxgbOHM55pYRP2qhtncPDEJZRVmsDG2QPOLS0AxiCtPcetPb5fBy3/WNoqMXOE9ygrXEyIxu59SUi5oobb79/A9IGya59MPY/RZyad7TF4sCM66V5FFcBWW4ZhGIZhmhUj5icMwzAMwzA/H00++ZDuXkDixrWIu2LEszePi6aVr6YYKVERiGkixajQYKrPGPgLI2yvkTzJuo9LTVEmjiR+jx8b976apqEJjKb3r32HLZF7kKmxyZqiDPw96TRyNZ6+rSnJQvK2VXgnfCOOqpQey2UYhmmZNPHkQ8Kt6ycR/XEUTuT9fAdwbeRWvjZtTDResPVzIzeYKhsDnwbk7TWeJ1n3cZCQu3sZVp6qgrXyZcVmQl5XhqnB3Tt3a1/SJqLmFq6d3I21675FzqPhIOH6V0vx17QaWNc/PSddRdQbm1AR9CamWiVhxcbTDdtgGIZpBTTx2dIUtkP9MKhHU56+dKx8JjbwmbcELzWRYlRuMNVnDPzlkbfXeJ5k3cfjPlQ95mDXX/1g+F7ppkbX9miYmluJWPnhMdlr4R9h0h2Dxw+FndaoK8MNu3nYucIHnev+UnMzGXGZlrC16oiRS79BSqSv5goMwzAtnoaXjFUVID32S5xS90H5kQ3Y8s0t9Bjuhm5tAUBkQaxCoTEWVbqNlC9jUDbaH5UJm7E/Q4K9R1+xHbCDSmBmVEZo5bPNx/d7dyHNdDjcrG8ZuQ+xDVBkwazStL0qGAOrCtIR++UpqPuU48iGLfjmVg8Md+uGWveqACULJgn6qLvcJqjPgjm03YWG9qr15NhgrGVyw6PGpKSm4J/YvHodolPyYT1gCHq3zUHy+jWIv+0EH9f6qUQVCkQW3a63kbZrEz45UASfsOmwSm0wSzpVnsfX20+goi/h1OZP8fWV9nAf1A5ZMZ/is8RcdPEYjJ4WEFo9qwUGSZsiuZVVF2Fd1ao3Zfuor8+aopP4MGQ2Ps6oglm1OXp7OcNcYJGl0lTs+LwA3vMD4WoGVFxPwam0szh+unaZnsXH8Nn6r5CQdhNqdSnQywvOnQpxOmYn9h86inN3u2KgazeYN3q8asfIMAzzi1Lrl5PoTmY0vebekTxDVtOnu3fQ4nE9adxH2aRWMMum5RlnUSX1fyhidC8a+9p7tOaT9ynYows5hOyjyxk6dsDENIGZUaSnrEVs5augwvOf0ywXW3rlYLnctircx0OhDVBowbyYZ9hgmnaTMqNfI/eOnhSy+lPavWMxjes5jj7KVuuGUIeSBVPQR4cKhLlQtGCWa9pp9eTYiFjlhsefSNvHqKZrmyZST/91lCMREd2hmIV/oeTShiUkJYuuWsF8/H0BZcW9QUPbj6Swrbso/uBamubgQC8s20DbD8TR316wpyHL0qlaYA1ekVooM0gmZUbL86WjYhTX1UOhmVi3Pku2T6FuL+2lckUzJZGkWkf+drV9qrRMdcYK8hr0Np2qJCLpJu2d/VtaerKEpIeXaMtUVxoXkUY3lXKpMF4ba5xkGIZpSup+ADaBzeBJGO1ogX6T30JYcDBemeiEgpyfoFawIEb90M8oiypQ++rXYTMXY+H85fji8zB0To5DRn9tO+DSvt/KzYyKKj9JwTxpgu4ekzDS3qQ2Jh0DoXAfFT8IbID9xRZMF1vDBtOoc3CeNBqOFv0w+a0wBAe/golOBcj5SemeFyUL5gFk6vRR+P8UCXOhaMFsr2mnVc7xQ4OxigyPxTr3Npii76tL8Lv87dicVomam/FIt56GAA0hkqJFV61gPjbpAvdJY+BkbovRwTMx9bdzETi0HO0GzUbotOkIneKGwhwVKgXWYFu1pY5Bcgkcvv5Yni8te65SXTXGagzAKDOlMcsA6ovbsCbFHs+N6AwTc1e8Mn8CbmyKwjlncS6VxmtjjZMMwzBNicbVZw0jKoC2pqa1FlSDFsS6v+uxqGrSrq8TepsCpGMHVDK/itFjnqzbruZnvfvweiiwAZYpWDBrjDKYSo+sgADQFqamBEFXyKlbqcGCqWNQ1JcLoQUT2jlSyLHhWJUMjzq0fxbzX++KvWv34cz+/8DuxRHQMRBo5EbHoquIZj5NYKpxJ7GZiQmIalAtyuuojjoGST35erRF5boS1o5ifRpjpjRmGUDKz0NhxQM0pLwPej4oxX1JnEu9NcIwDPOUoHXrm+B0YsC8KD4H6aPiX5m4FxAIXwvtlZXMrxU5p3H0fKGOXt0MA/RZ+TQbZWgfqY4CG2C+2IKZX3uaNGQwtRT3JIAK5Jw+ivMi5Z+SBVMzFr25EFkwa9HqjoaPjzAcqx7Doxam6B/6Z/ilL8e8LFe86Cq4WVPUACiZJeu+NFBkwrzWaSAbVtWXr3qU60rfPuoxadMGUnU1asoq0MvTkJlSj72SaifuBMB8+AT40Ekcqm001AWFkPwmY5ylQlfqqZGaO5k4fjZPdw2GYZjmp/76S8nFPRTqakEeYbGUdTmV1gfZk/Wzy+hYbiVJ+YcpfIo/Bc5/j1YtX0QRSSqSyi5R7OvuZDFwDu3JuEaZMXNpkOVgmrcvk66e+4JCXCxp6JsJlH3/Ln2/LoQmTw+jlR9G0rvvfkZn7lTT3axomuNmTs4vb6P0QomI1KRKXELPudhQp2dcaOI7hylPekjJcx3I2m4G7bilfb2IHmTR9tCR1N9tPM16ezH9ztOFprwbT+mnt9IMJyvyXJBE59ON2QdR9fU4WuDnQNade5Fn8CY6W0ZEVE3X4xaQn4M1de7lScGbzlKZdIf+tXUGOVl50oJD14ikfDocPoX8A+fTe6uW06KIJFJJJXRxTyi5WnhQWGwWXU5dT0H21vTssmOUW5pMcx2syW7GDtIKR32VIsd2pWGzVtLHG9bSO/OXU9y1SkEfkTgXjzZUTscWvkT/n1F3L4JOe5VzXG4g1my6lfAmDentRhPnvkuRYWPIYdzbdPCa6J6cajq7PIBm7SvW/YKo5CLtCXUlC48wis26TKnrg8je+lladiyXSP0j7XzZlfoM+Q3NiVhPb411o6APEui76NfJ3WIgzdmTQdcyY2juIEsaPG8fZV49R1+EuJDl0DcpIfuePK/Vdykreg65mTvTy9vSqVAihXzptFFYVwmUXS6uHU2qz60iX6ehFPT+IVJVqihxyXPkYtOJnnGZSO8cziNJKqbMrb8nx/aetCAxm0gtWKbkEiUv9yebjt70f3vPUM4DifIPh9MU/0Ca/94qWr4ogpJUkp5cKoxXkki1dSo5BqzTbjTDMMwvQAt4vXoV0tdEQjU7HAYkeS2DqnSsiVRhdnhQw+OkrcqCWYKDKzai0+Jw+LfX/Y5hGIZhmvw9H0+KBFVKLK56hcIISd7Tj6RCSuxVeIUG6rzHohVYMKXriF+9AqsjwvFdjyCM44kHwzAMo8BTPvkwhf3YYPzB16725smWjqk9xgb/Ab52mtFU4UbqCRT3GYI2mcdwuUzjqxYF4eGdH5FjNhVL5g1sHfliGIZhmoQWcNmFYRiGYZjWxFP+ywfDMAzDMK0NnnwwDMMwDNOs8OSDYRiGYZhmhScfDMMwDMM0Kzz5YBiGYRimWeHJB8MwDMMwzQpPPhiGYRiGaVZ48sEwDMMwTLPCkw+GYRiGYZoVnnwwDMMwDNOs/Bcd3DXy1BcMGgAAAABJRU5ErkJggg==;" vertex="1" parent="1">
          <mxGeometry x="610" y="-140" width="543" height="197" as="geometry" />
        </mxCell>
        <mxCell id="420Tv9R_N6Mz5HBJ3JaE-25" value="Producto" style="whiteSpace=wrap;html=1;align=center;fillColor=#f0a30a;strokeColor=#BD7000;fontColor=#000000;" vertex="1" parent="1">
          <mxGeometry x="830" y="130" width="100" height="40" as="geometry" />
        </mxCell>
        <mxCell id="420Tv9R_N6Mz5HBJ3JaE-26" value="Cliente" style="whiteSpace=wrap;html=1;align=center;fillColor=#f0a30a;strokeColor=#BD7000;fontColor=#000000;" vertex="1" parent="1">
          <mxGeometry x="1150" y="130" width="100" height="40" as="geometry" />
        </mxCell>
        <mxCell id="420Tv9R_N6Mz5HBJ3JaE-27" value="Compra" style="shape=rhombus;perimeter=rhombusPerimeter;whiteSpace=wrap;html=1;align=center;fillColor=#76608a;fontColor=#ffffff;strokeColor=#432D57;" vertex="1" parent="1">
          <mxGeometry x="1000" y="130" width="90" height="40" as="geometry" />
        </mxCell>
        <mxCell id="420Tv9R_N6Mz5HBJ3JaE-28" value="" style="endArrow=none;html=1;rounded=0;exitX=0;exitY=0.5;exitDx=0;exitDy=0;" edge="1" source="420Tv9R_N6Mz5HBJ3JaE-27" parent="1">
          <mxGeometry relative="1" as="geometry">
            <mxPoint x="977" y="120" as="sourcePoint" />
            <mxPoint x="930" y="150" as="targetPoint" />
          </mxGeometry>
        </mxCell>
        <mxCell id="420Tv9R_N6Mz5HBJ3JaE-29" value="(1,N)" style="resizable=0;html=1;whiteSpace=wrap;align=right;verticalAlign=bottom;" connectable="0" vertex="1" parent="420Tv9R_N6Mz5HBJ3JaE-28">
          <mxGeometry x="1" relative="1" as="geometry">
            <mxPoint x="34" as="offset" />
          </mxGeometry>
        </mxCell>
        <mxCell id="420Tv9R_N6Mz5HBJ3JaE-30" value="" style="endArrow=none;html=1;rounded=0;exitX=1;exitY=0.5;exitDx=0;exitDy=0;" edge="1" source="420Tv9R_N6Mz5HBJ3JaE-27" parent="1">
          <mxGeometry relative="1" as="geometry">
            <mxPoint x="977" y="120" as="sourcePoint" />
            <mxPoint x="1150" y="150" as="targetPoint" />
          </mxGeometry>
        </mxCell>
        <mxCell id="420Tv9R_N6Mz5HBJ3JaE-31" value="(1,M)" style="resizable=0;html=1;whiteSpace=wrap;align=right;verticalAlign=bottom;" connectable="0" vertex="1" parent="420Tv9R_N6Mz5HBJ3JaE-30">
          <mxGeometry x="1" relative="1" as="geometry">
            <mxPoint as="offset" />
          </mxGeometry>
        </mxCell>
        <mxCell id="420Tv9R_N6Mz5HBJ3JaE-32" value="" style="endArrow=none;html=1;rounded=0;exitX=0.5;exitY=0;exitDx=0;exitDy=0;" edge="1" target="420Tv9R_N6Mz5HBJ3JaE-33" parent="1" source="420Tv9R_N6Mz5HBJ3JaE-27">
          <mxGeometry relative="1" as="geometry">
            <mxPoint x="1005" y="85" as="sourcePoint" />
            <mxPoint x="1065" y="85" as="targetPoint" />
          </mxGeometry>
        </mxCell>
        <mxCell id="420Tv9R_N6Mz5HBJ3JaE-33" value="Fecha" style="ellipse;whiteSpace=wrap;html=1;align=center;" vertex="1" parent="1">
          <mxGeometry x="1020" y="70" width="50" height="30" as="geometry" />
        </mxCell>
        <mxCell id="420Tv9R_N6Mz5HBJ3JaE-34" value="Provedor" style="whiteSpace=wrap;html=1;align=center;fillColor=#f0a30a;strokeColor=#BD7000;fontColor=#000000;" vertex="1" parent="1">
          <mxGeometry x="510" y="130" width="100" height="40" as="geometry" />
        </mxCell>
        <mxCell id="420Tv9R_N6Mz5HBJ3JaE-35" value="Suministra" style="shape=rhombus;perimeter=rhombusPerimeter;whiteSpace=wrap;html=1;align=center;fillColor=#76608a;fontColor=#ffffff;strokeColor=#432D57;" vertex="1" parent="1">
          <mxGeometry x="680" y="130" width="90" height="40" as="geometry" />
        </mxCell>
        <mxCell id="420Tv9R_N6Mz5HBJ3JaE-36" value="" style="endArrow=none;html=1;rounded=0;exitX=0;exitY=0.5;exitDx=0;exitDy=0;" edge="1" source="420Tv9R_N6Mz5HBJ3JaE-35" parent="1">
          <mxGeometry relative="1" as="geometry">
            <mxPoint x="657" y="120" as="sourcePoint" />
            <mxPoint x="610" y="150" as="targetPoint" />
          </mxGeometry>
        </mxCell>
        <mxCell id="420Tv9R_N6Mz5HBJ3JaE-37" value="(1,N)" style="resizable=0;html=1;whiteSpace=wrap;align=right;verticalAlign=bottom;" connectable="0" vertex="1" parent="420Tv9R_N6Mz5HBJ3JaE-36">
          <mxGeometry x="1" relative="1" as="geometry">
            <mxPoint x="34" as="offset" />
          </mxGeometry>
        </mxCell>
        <mxCell id="420Tv9R_N6Mz5HBJ3JaE-38" value="" style="endArrow=none;html=1;rounded=0;exitX=1;exitY=0.5;exitDx=0;exitDy=0;" edge="1" source="420Tv9R_N6Mz5HBJ3JaE-35" parent="1">
          <mxGeometry relative="1" as="geometry">
            <mxPoint x="657" y="120" as="sourcePoint" />
            <mxPoint x="830" y="150" as="targetPoint" />
          </mxGeometry>
        </mxCell>
        <mxCell id="420Tv9R_N6Mz5HBJ3JaE-39" value="(1,M)" style="resizable=0;html=1;whiteSpace=wrap;align=right;verticalAlign=bottom;" connectable="0" vertex="1" parent="420Tv9R_N6Mz5HBJ3JaE-38">
          <mxGeometry x="1" relative="1" as="geometry">
            <mxPoint as="offset" />
          </mxGeometry>
        </mxCell>
      </root>
    </mxGraphModel>
  </diagram>
</mxfile>
